<svg xmlns="http://www.w3.org/2000/svg" viewBox="0 0 500 85.529"><defs><style>.a{fill:#eceff1;}.b{fill:#af2f2f;}</style></defs><title>todomvc-logo-with-icon-dark-background</title><path class="a" d="M239.936,140.48v-6.71l8.744-.593c1.188-.086,1.358-.425,1.358-1.7V88.26H241.3c-.935,0-1.19.083-1.36.933l-1.357,7.387h-9.34V79.01h54.678V96.586h-9.255l-1.35-7.388c-.17-.85-.42-.933-1.36-.933H263.2V131.48c0,1.187.09,1.526,1.36,1.61l9.34.68v6.71H239.936Zm35.14,1.18h-36.32v-8.99L248.6,132l.244-.025.015-.5V89.444h-7.57l-.19,0-1.55,8.317h-11.49V77.83h57.03V97.765h-11.42l-1.53-8.317-.21,0h-7.57v42.448l.25.022,10.44.76v8.984Zm-33.96-2.36h31.6v-4.433l-8.246-.6c-2.264-.15-2.453-1.46-2.453-2.788v-44.4h9.92c1.08,0,2.17.14,2.51,1.88l1.18,6.44h7.09V80.19h-52.31V95.406h7.17l1.18-6.422c.35-1.753,1.43-1.9,2.52-1.9h9.92V131.48c0,1.307-.19,2.71-2.46,2.876l-7.65.517V139.3Zm41.447-20.64c0-14.1,7.385-23.264,22.923-23.264,15.7,0,21.817,9.338,21.817,22.33,0,14.433-7.3,23.77-22.923,23.77-15.533,0-21.817-9.508-21.817-22.837Zm31.33-.51c0-10.02-3.058-13.586-8.575-13.586-5.6,0-9.34,3.482-9.34,13.67,0,10.273,3.31,14.35,9,14.35,5.52,0,8.917-3.82,8.917-14.434Zm-9.512,24.527c-14.82,0-22.99-8.53-22.99-24.018,0-15.54,8.79-24.45,24.11-24.45,14.83,0,23,8.35,23,23.51,0,16.09-8.56,24.95-24.1,24.95Zm1.11-46.1c-14.02,0-21.74,7.842-21.74,22.082,0,9.88,3.58,21.65,20.64,21.65,17.97,0,21.75-12.29,21.75-22.59,0-9.65-3.58-21.15-20.64-21.15Zm-.51,37.186c-6.75,0-10.18-5.224-10.18-15.528,0-9.854,3.54-14.85,10.52-14.85,8.74,0,9.76,8.426,9.76,14.766,0,10.51-3.3,15.62-10.09,15.62Zm.34-28.02c-3.5,0-8.16,1.3-8.16,12.49,0,11.8,4.47,13.17,7.82,13.17,3.32,0,7.74-1.372,7.74-13.253,0-10.932-3.73-12.406-7.39-12.406Zm59.1,34.736-.85-4.76-.59-.09a18.707,18.707,0,0,1-13.92,5.85c-10.02,0-16.47-6.37-16.47-22.58,0-17.07,8.58-23.52,18.01-23.52a19.568,19.568,0,0,1,11.97,4.07v-12.9a1.6,1.6,0,0,0-1.1-1.7l-4.67-1.61.94-6.88H374.8v55.19c0,1.27.08,1.44,1.36,1.61l4.08.59v6.71h-15.79Zm-2.38-32.69a13.732,13.732,0,0,0-7.3-2.55c-6.28,0-8.74,5.85-8.74,13.41,0,8.23,2.38,12.82,7.73,12.82,2.89,0,6.03-1.7,8.33-3.65V107.79Zm-12.99,34.88c-11.71,0-17.65-8-17.65-23.77,0-15.47,7.17-24.7,19.18-24.7a20.259,20.259,0,0,1,10.79,3.04V86.56c0-.48-.14-.523-.3-.58l-5.59-1.93,1.2-8.856h19.28V131.56l.01.4.33.05,5.1.74v8.91h-17.96l-.74-4.15a19.46,19.46,0,0,1-13.64,5.166Zm1.53-46.1c-10.69,0-16.82,8.14-16.82,22.33,0,14.4,5.01,21.4,15.3,21.4a17.578,17.578,0,0,0,13.1-5.52l.42-.41,2.02.29.83,4.62h13.62v-4.5l-3.06-.45c-2.01-.27-2.36-1.11-2.36-2.78v-54h-14.86l-.66,4.9,3.75,1.29a2.773,2.773,0,0,1,1.9,2.81V101.8l-1.88-1.385a18.218,18.218,0,0,0-11.27-3.844Zm3.14,36.08c-5.9,0-8.9-4.71-8.9-14s3.62-14.6,9.93-14.6a14.785,14.785,0,0,1,7.97,2.75l.52.35v21.21l-.41.35c-1.39,1.18-5.05,3.93-9.09,3.93Zm1.02-26.24c-6.58,0-7.56,7.66-7.56,12.23,0,11.64,4.93,11.64,6.55,11.64a12.377,12.377,0,0,0,7.15-3.03V108.43a12.245,12.245,0,0,0-6.12-2Zm28.36,12.24c0-14.1,7.39-23.27,22.93-23.27,15.71,0,21.82,9.34,21.82,22.33,0,14.43-7.3,23.77-22.92,23.77-15.54,0-21.82-9.51-21.82-22.84Zm31.33-.51c0-10.02-3.06-13.59-8.57-13.59-5.6,0-9.33,3.48-9.33,13.67,0,10.27,3.31,14.35,9,14.35,5.52,0,8.92-3.82,8.92-14.43Zm-9.51,24.52c-14.83,0-23-8.53-23-24.02,0-15.54,8.79-24.45,24.11-24.45,14.83,0,23,8.35,23,23.51,0,16.09-8.56,24.95-24.1,24.95Zm1.11-46.1c-14.02,0-21.74,7.84-21.74,22.08,0,9.88,3.59,21.65,20.64,21.65,17.97,0,21.74-12.29,21.74-22.59,0-9.65-3.58-21.15-20.64-21.15Zm-.51,37.18c-6.75,0-10.18-5.23-10.18-15.53,0-9.86,3.54-14.85,10.52-14.85,8.75,0,9.76,8.42,9.76,14.76,0,10.5-3.3,15.61-10.1,15.61Zm.34-28.02c-3.5,0-8.16,1.29-8.16,12.49,0,11.8,4.47,13.17,7.82,13.17,3.32,0,7.74-1.37,7.74-13.26,0-10.93-3.74-12.41-7.4-12.41Z" transform="translate(-124 -66)"/><path class="b" d="M478.554,140.48v-6.624l6.963-.594c1.188-.17,1.358-.51,1.358-1.7V99.3h-.34l-12.14,28.95H460.552L448.584,99.217h-.427V131.48c0,1.356.086,1.527,1.358,1.7l7.3.68v6.622h-25.81v-6.623l5.347-.594c1.19-.17,1.36-.427,1.36-1.7V88.01c0-1.274-.17-1.527-1.36-1.7l-5.347-.595V79.01h22.753l14.78,38.46h.34l15.54-38.46H506.5v6.623l-5.69.68c-1.27.17-1.36.338-1.36,1.61v43.642c0,1.1.26,1.442,1.36,1.613l5.69.68v6.622H478.554Zm29.114,1.18H477.376v-8.886l8.04-.688.29-.06a2.449,2.449,0,0,1-.012-.463v-27.21L475.177,129.43H459.763l-10.426-25.294v27.342l.008.48.328.05,8.325.77v8.88H429.83V132.8l6.4-.712.3-.053.02-.473V88.01l-.01-.473-.33-.057-6.36-.707V77.83h24.74l14.16,36.854,14.88-36.854h24.05v8.85l-6.73.8-.31.048v44.035l.02.4.34.055,6.69.8v8.844Zm-27.935-2.36h25.575v-4.4l-4.65-.556a2.447,2.447,0,0,1-2.4-2.784V87.924c0-1.667.36-2.51,2.39-2.78l4.67-.557v-4.4h-20.11l-15.54,38.46h-1.94l-14.77-38.46h-20.77v4.472l4.3.478c2.02.29,2.41,1.27,2.41,2.87v43.555c0,1.6-.38,2.58-2.37,2.866l-4.34.49v4.38h23.46v-4.36l-6.23-.58c-2.08-.28-2.43-1.11-2.43-2.87V98.04h2.4l11.97,29.037h12.27l12.14-28.954h2.3v33.45c0,1.56-.39,2.585-2.36,2.87l-5.95.51v4.36Zm55.443,1.18L518.11,88.01c-.34-1.02-1.017-1.19-2.038-1.444l-3.82-.933.85-6.623h25.727v6.623l-6.88.763,12.73,42.45h.68l12.31-42.45-6.79-.763.85-6.623h21.98v6.623l-3.57.933c-1.02.255-1.87.595-2.12,1.612L552.5,140.48Zm18.2,1.18H534.32L516.99,88.374c-.115-.342-.13-.4-1.2-.663l-4.844-1.18,1.11-8.7H540v8.86l-6.52.73L545,125.85l11.14-38.423-6.587-.74,1.13-8.84h24.21v8.71l-4.446,1.165c-1.077.27-1.21.484-1.275.76l-15.805,53.19Zm-17.344-2.36h15.584L566.9,87.842a3.562,3.562,0,0,1,2.965-2.42l2.675-.7V80.19h-19.77l-.566,4.4,6.99.786-12.944,44.64h-2.446l-13.392-44.64,7.235-.81v-4.39h-23.52l-.59,4.55,2.8.68c1.1.28,2.33.58,2.88,2.22l16.81,51.67Zm86.79-2.47c-5.012,3.056-13.5,4.666-21.23,4.666-21.14,0-29.8-12.308-29.8-32.007,0-18.09,10.442-31.59,31.583-31.59,7.047,0,14.6,1.78,19.273,4.84v16.64l-9.338-.77-1.358-8.32a1.713,1.713,0,0,0-1.36-1.53,26.866,26.866,0,0,0-7.554-1.02c-10.785,0-17.664,7.3-17.664,21.73,0,15.02,6.54,22.33,17.07,22.33a32.6,32.6,0,0,0,8.488-1.11c1.02-.26,1.273-.51,1.528-1.79l1.273-7.9h9.086v15.8Zm-21.228,5.847c-20.558,0-30.98-11.167-30.98-33.188,0-20.21,12.554-32.77,32.763-32.77,7.545,0,15.18,1.93,19.92,5.03l.532.34v18.56l-11.54-.95-1.51-9.23c-.09-.43-.15-.48-.54-.59a26.225,26.225,0,0,0-7.22-.97c-10.63,0-16.49,7.3-16.49,20.55,0,13.83,5.49,21.15,15.89,21.15a31.925,31.925,0,0,0,8.14-1.05,2.668,2.668,0,0,0,.52-.17,3.723,3.723,0,0,0,.19-.72l1.43-8.84H624v17.63l-.564.34c-4.9,2.98-13.265,4.84-21.842,4.84Zm1.782-63.593c-19.037,0-30.4,11.367-30.4,30.405,0,20.45,9.63,30.82,28.622,30.82,7.718,0,15.475-1.63,20.047-4.17V122.21h-6.9l-1.11,6.906c-.34,1.73-.9,2.36-2.4,2.737a33.788,33.788,0,0,1-8.78,1.134c-11.77,0-18.24-8.35-18.24-23.508,0-14.57,6.87-22.92,18.84-22.92a28.467,28.467,0,0,1,7.92,1.07,2.851,2.851,0,0,1,2.16,2.42l1.22,7.45,7.15.58v-14.7c-4.37-2.64-11.37-4.32-18.09-4.32Z" transform="translate(-124 -66)"/><path class="a" d="M136.83,71.7h8.78V66h-8.78a12.786,12.786,0,0,0-6.85,1.98l3.047,4.814a7.137,7.137,0,0,1,3.8-1.094M129.7,78.827a7.1,7.1,0,0,1,.646-2.98l-5.178-2.387A12.743,12.743,0,0,0,124,78.826V88.92h5.7V78.828ZM124,94.68h5.7v14.37H124Zm76.782-21.7q2.524-1.606,5.13-3.08A12.8,12.8,0,0,0,196.7,66h-5.047v5.7H196.7a7.042,7.042,0,0,1,4.082,1.28M124,114.81h5.7v14.4H124ZM151.37,66h14.37v5.7H151.37ZM171.5,66h14.4v5.7H171.5Zm6.358,79.824h14.367v5.7H177.855Zm25.972-47.437h5.7v14.4h-5.7Zm0,20.155h5.7v14.372h-5.7ZM129.7,138.7v-3.74H124v3.74a12.843,12.843,0,0,0,6.63,11.235l2.76-4.99A7.142,7.142,0,0,1,129.7,138.7m74.123-49.86v3.77h5.7v-8.46q-2.953,2.217-5.7,4.69m0,49.861a7.14,7.14,0,0,1-6.2,7.07l.726,5.654A12.831,12.831,0,0,0,209.529,138.7v-.028h-5.71v.03Zm-66.285,7.124h14.4v5.7h-14.4Zm20.154,0h14.4v5.7H157.7Z" transform="translate(-124 -66)"/><path class="b" d="M137.06,111.4,163.8,138.14s26.746-51.453,55.663-62.994L218.38,67c-15.747,6.244-39.646,22.673-57.292,47.788l-18.6-11Z" transform="translate(-124 -66)"/></svg>