<svg xmlns="http://www.w3.org/2000/svg" viewBox="0 0 155.998 155.999"><defs><style>.a{fill:#54a8ff;}.a,.b{fill-rule:evenodd;}.b{fill:#e64086;}</style></defs><title>logo</title><polygon class="a" points="71.499 155.998 84.499 155.998 84.499 136.498 71.499 136.498 71.499 155.998"/><path class="a" d="M484,491.086l2.632,15.34-13.779-7.241-13.774,7.241,2.633-15.34-11.148-10.861,15.4-2.243,6.884-13.955,6.889,13.955,15.4,2.243Zm38.232,14.8a39.4,39.4,0,0,1-5.388-4.784c-21.209-22.736-18.115-71.083-17.979-73.124v-6.051H446.856v6.5c.13,1.592,3.224,49.939-17.985,72.675a39.352,39.352,0,0,1-5.389,4.784,38.744,38.744,0,0,1,8.164,6.767c18.531,20.312,15.333,57.784,15.19,59.364v5.908h6.52v-26a6.5,6.5,0,0,1,6.5-6.5h26a6.5,6.5,0,0,1,6.5,6.5v26h6.5v-6.5c-.117-.988-3.315-38.46,15.216-58.772a38.794,38.794,0,0,1,8.164-6.767Z" transform="translate(-394.86 -421.926)"/><path class="b" d="M511.858,428.426c-.045.891-2.853,45.227,14.5,63.816a23.416,23.416,0,0,0,18,7.683h6.5v-71.5a6.5,6.5,0,0,0-6.5-6.5h-32.5Z" transform="translate(-394.86 -421.926)"/><path class="b" d="M401.36,499.925a23.386,23.386,0,0,0,18-7.7c14.437-15.469,15.373-50.978,14.508-63.354v-6.949H401.36a6.5,6.5,0,0,0-6.5,6.5v71.5Z" transform="translate(-394.86 -421.926)"/><path class="b" d="M544.358,512.925c-8.691,0-15.45,2.769-20.663,8.47-14.677,16.048-11.9,49.106-11.863,49.444l.007,7.085h32.519a6.5,6.5,0,0,0,6.5-6.5v-58.5Z" transform="translate(-394.86 -421.926)"/><path class="b" d="M433.859,571.424c.059-.923,2.841-33.981-11.836-50.029-5.213-5.7-11.973-8.47-20.663-8.47h-6.5v58.5a6.5,6.5,0,0,0,6.5,6.5h32.5Z" transform="translate(-394.86 -421.926)"/></svg>