<svg xmlns="http://www.w3.org/2000/svg" viewBox="0 0 2306.346 1395.193"><defs><style>.a{fill:#283162;}.a,.aa,.ac,.ad,.ae,.af,.ag,.ah,.ai,.b,.g,.h,.i,.j,.k,.l,.m,.n,.o,.p,.q,.s,.t,.w,.x,.y{fill-rule:evenodd;}.b,.c{fill:#1c80ea;}.d,.i{fill:#0fbfef;}.e,.n{fill:#c4e4a1;}.f,.k{fill:#21d0a5;}.g{fill:#b5c4e7;}.h{fill:#fff;}.j,.u{fill:#fffaff;}.l{fill:#2f9cff;}.m{fill:#9ffaff;}.o,.z{fill:#3a487d;}.p,.v{fill:#242a5a;}.q,.r{fill:#364478;}.s{fill:#ffdf86;}.t{fill:#686f9d;}.w{fill:#2c3669;}.x{fill:#c63173;}.y{fill:#e33f84;}.aa{fill:#e467aa;}.ab,.ad{fill:#ff98d4;}.ac{fill:#4d588a;}.ae{fill:#ffb1e4;}.af{fill:#961e5d;}.ag{fill:#ff7586;}.ah{fill:#859dd7;}.ai{fill:#74acf9;}.aj{fill:#5ca0f5;}</style></defs><title>programmer-dude</title><path class="a" d="M1006.334,2119.4c34.579-278.031-203.152-539.113,191.626-590.113s922.5-52.44,1189.575-117.276-206.727,736.7-206.727,736.7S948.7,2387.346,1006.334,2119.4Z" transform="translate(-878.462 -1336.284)"/><path class="b" d="M1169.628,2658.933c-236.068-156.4-480.465-548.519-71.742-774.706S1839.867,1632.72,2090.5,1461.9s560.608-240,889.9,276.093,225.437,779.439-61.688,935.837C2507.463,2676.31,1341.151,2743.337,1169.628,2658.933Z" transform="translate(-878.462 -1336.284)"/><rect class="c" x="484.497" y="760.805" width="43.296" height="14.529"/><rect class="d" x="484.497" y="789.869" width="86.591" height="14.53"/><rect class="e" x="484.497" y="818.929" width="43.296" height="14.529"/><rect class="f" x="484.497" y="1006.535" width="86.591" height="14.53"/><rect class="e" x="484.497" y="1034.375" width="43.296" height="14.526"/><path class="g" d="M1550.605,2417.068H2764.431c11.165,0,21.065-8.924,21.506-19.654q3.872-93.764,7.806-189.013c2.641-63.992,5.314-128.65,7.995-193.633q4.062-98.469,8.2-198.589,4.167-100.937,8.41-203.7c.484-11.722-9.177-21.143-20.948-21.143H1517.6a19.935,19.935,0,0,0-20.162,21.057q4.242,102.681,8.41,203.624,4.131,100.206,8.207,198.755c2.686,65.064,5.354,129.808,8,193.8q3.927,95.128,7.805,189.013C1530.288,2408.146,1539.438,2417.068,1550.605,2417.068Z" transform="translate(-878.462 -1336.284)"/><path class="h" d="M2589.441,2417.068h174.99c11.165,0,21.065-8.924,21.506-19.654q3.872-93.764,7.806-189.013c2.641-63.992,5.314-128.65,7.995-193.633q4.062-98.469,8.2-198.589,4.167-100.937,8.41-203.7c.484-11.722-9.177-21.143-20.948-21.143h-684.7Z" transform="translate(-878.462 -1336.284)"/><path class="a" d="M1563.714,2379.989H2157.39q148.265,0,296.78-.081h297.156a4.1,4.1,0,0,0,4.172-3.8q3.481-88.677,7.012-178.688,3.556-90.66,7.166-182.652,3.639-92.769,7.345-187.111c2.479-63.248,4.989-127.248,7.519-191.65a3.991,3.991,0,0,0-4.06-4.13q-155.946,0-311.625-.081H2157.367q-155.742,0-311.488-.082H1534.518a3.99,3.99,0,0,0-4.06,4.126q3.8,96.611,7.531,191.732,3.7,94.256,7.356,187.2,3.613,92.145,7.181,182.9,3.528,89.922,7.016,178.608A4.089,4.089,0,0,0,1563.714,2379.989Z" transform="translate(-878.462 -1336.284)"/><path class="i" d="M1776.753,2089.415h38.317c-.1-3.137-.2-6.36-.294-9.579h-38.344C1776.54,2083.055,1776.649,2086.278,1776.753,2089.415Z" transform="translate(-878.462 -1336.284)"/><path class="j" d="M1649.89,2108.656h13.692c-.1-3.223-.2-6.361-.3-9.579h-13.7C1649.681,2102.3,1649.784,2105.433,1649.89,2108.656Z" transform="translate(-878.462 -1336.284)"/><path class="j" d="M1673.438,2108.656h43.775c-.089-3.223-.182-6.361-.271-9.579h-43.8C1673.239,2102.3,1673.34,2105.433,1673.438,2108.656Z" transform="translate(-878.462 -1336.284)"/><path class="j" d="M1726.173,2108.656h43.9c-.082-3.223-.16-6.361-.241-9.579h-43.931C1725.994,2102.3,1726.083,2105.433,1726.173,2108.656Z" transform="translate(-878.462 -1336.284)"/><path class="j" d="M1779.036,2108.656h88.954c-.059-3.223-.117-6.442-.179-9.579H1778.8C1778.877,2102.3,1778.958,2105.433,1779.036,2108.656Z" transform="translate(-878.462 -1336.284)"/><path class="k" d="M1726.855,2133.179h43.833c-.081-3.3-.159-6.442-.239-9.661h-43.862C1726.676,2126.737,1726.765,2129.875,1726.855,2133.179Z" transform="translate(-878.462 -1336.284)"/><path class="j" d="M1779.633,2133.179c14.824,0,29.648,0,44.472-.084-.07-3.22-.139-6.358-.2-9.577h-44.5C1779.477,2126.737,1779.555,2129.875,1779.633,2133.179Z" transform="translate(-878.462 -1336.284)"/><path class="k" d="M1727.533,2157.455H1771.3q-.116-4.705-.235-9.412h-43.792Q1727.4,2152.75,1727.533,2157.455Z" transform="translate(-878.462 -1336.284)"/><path class="j" d="M1780.229,2157.455H1868.9c-.058-3.137-.116-6.274-.174-9.5-29.621,0-59.239.086-88.733.086Q1780.113,2152.75,1780.229,2157.455Z" transform="translate(-878.462 -1336.284)"/><path class="j" d="M1728.215,2181.9c14.522,0,29.044-.084,43.693-.084-.081-3.22-.163-6.358-.239-9.576h-43.722C1728.036,2175.455,1728.122,2178.593,1728.215,2181.9Z" transform="translate(-878.462 -1336.284)"/><path class="j" d="M1780.826,2181.813H1795.6c-.078-3.22-.152-6.358-.226-9.576h-14.785C1780.666,2175.455,1780.744,2178.593,1780.826,2181.813Z" transform="translate(-878.462 -1336.284)"/><path class="j" d="M1728.889,2206.093c14.5-.087,29-.087,43.625-.087-.079-3.137-.156-6.192-.234-9.33h-43.656Q1728.758,2201.383,1728.889,2206.093Z" transform="translate(-878.462 -1336.284)"/><path class="j" d="M1781.415,2206.006h44.263q-.105-4.705-.205-9.412c-14.758.082-29.521.082-44.288.082C1781.263,2199.814,1781.341,2202.869,1781.415,2206.006Z" transform="translate(-878.462 -1336.284)"/><path class="j" d="M1940.811,2290.4h276.081q-.07-3.963-.136-7.93-138.114.129-276.219.166C1940.626,2285.112,1940.719,2287.758,1940.811,2290.4Z" transform="translate(-878.462 -1336.284)"/><path class="l" d="M1934.414,2009.979h281.573c.154-41.866.317-84.06.473-126.337.154-42.439.312-85.3.475-128.15h-286.3c.743,42.849,1.362,85.623,1.967,128.065Q1933.513,1947.094,1934.414,2009.979Z" transform="translate(-878.462 -1336.284)"/><path class="b" d="M1934.414,2009.979h273.4l.441-118.652c.154-42.438.313-85.3.476-128.149H1930.769c.686,40.276,1.267,80.473,1.836,120.379Q1933.513,1947.094,1934.414,2009.979Z" transform="translate(-878.462 -1336.284)"/><path class="j" d="M1934.414,2009.979h281.573c.007-2.478.019-4.873.027-7.267h-281.7C1934.344,2005.106,1934.379,2007.5,1934.414,2009.979Z" transform="translate(-878.462 -1336.284)"/><path class="j" d="M1948.483,1983.306h44.128c-.034-3.3-.07-6.524-.1-9.741h-44.16C1948.4,1976.782,1948.441,1980.006,1948.483,1983.306Z" transform="translate(-878.462 -1336.284)"/><path class="j" d="M2001.73,1992.06h9.8c-.087-9.083-.171-18.248-.258-27.331h-9.815C2001.548,1973.812,2001.641,1982.977,2001.73,1992.06Z" transform="translate(-878.462 -1336.284)"/><path class="j" d="M2054.934,1983.306h89.674c0-3.3,0-6.524-.008-9.741h-89.732C2054.892,1976.782,2054.911,1980.006,2054.934,1983.306Z" transform="translate(-878.462 -1336.284)"/><path class="j" d="M2016.624,1984.793h9.676c-.034-4.377-.07-8.587-.108-12.8h-9.685C2016.545,1976.206,2016.585,1980.416,2016.624,1984.793Z" transform="translate(-878.462 -1336.284)"/><path class="j" d="M2034.659,1981.489h9.68c-.015-2.145-.031-4.128-.046-6.109h-9.681C2034.629,1977.361,2034.644,1979.344,2034.659,1981.489Z" transform="translate(-878.462 -1336.284)"/><path class="k" d="M1947.886,1938.8h22.127c-.04-3.3-.078-6.605-.117-9.824h-22.27C1947.67,1932.194,1947.713,1935.5,1947.886,1938.8Z" transform="translate(-878.462 -1336.284)"/><path class="j" d="M1977.392,1938.8h22.254c-.036-3.3-.066-6.605-.1-9.824h-22.269C1977.314,1932.194,1977.352,1935.5,1977.392,1938.8Z" transform="translate(-878.462 -1336.284)"/><path class="j" d="M2007.021,1938.8h22.125c-.026-3.3-.053-6.605-.076-9.824h-22.142C2006.959,1932.194,2006.99,1935.5,2007.021,1938.8Z" transform="translate(-878.462 -1336.284)"/><path class="k" d="M1947.472,1917.413h22.285c-.039-3.3-.078-6.524-.116-9.824h-22.3C1947.383,1910.889,1947.426,1914.113,1947.472,1917.413Z" transform="translate(-878.462 -1336.284)"/><path class="j" d="M1977.143,1917.413h22.285c-.031-3.3-.065-6.524-.1-9.824h-22.3C1977.067,1910.889,1977.105,1914.113,1977.143,1917.413Z" transform="translate(-878.462 -1336.284)"/><path class="j" d="M2006.816,1917.413h22.157c-.028-3.3-.055-6.524-.082-9.824h-22.168C2006.753,1910.889,2006.785,1914.113,2006.816,1917.413Z" transform="translate(-878.462 -1336.284)"/><path class="i" d="M1947.181,1895.945H1969.5c-.044-3.3-.082-6.689-.12-9.909H1947.05Q1947.113,1890.866,1947.181,1895.945Z" transform="translate(-878.462 -1336.284)"/><path class="m" d="M1976.9,1895.945h22.315c-.03-3.3-.065-6.689-.1-9.909H1976.78C1976.818,1889.256,1976.857,1892.64,1976.9,1895.945Z" transform="translate(-878.462 -1336.284)"/><path class="m" d="M2006.611,1895.945H2028.8c-.027-3.3-.055-6.689-.082-9.909h-22.2C2006.544,1889.256,2006.575,1892.64,2006.611,1895.945Z" transform="translate(-878.462 -1336.284)"/><path class="n" d="M1946.9,1874.392h22.347c-.04-3.3-.078-6.523-.249-9.827h-22.23C1946.805,1867.869,1946.849,1871.088,1946.9,1874.392Z" transform="translate(-878.462 -1336.284)"/><path class="j" d="M1976.649,1874.392H1999c-.031-3.3-.067-6.523-.1-9.827h-22.363C1976.571,1867.869,1976.609,1871.088,1976.649,1874.392Z" transform="translate(-878.462 -1336.284)"/><path class="j" d="M2006.4,1874.392h22.219c-.027-3.3-.055-6.523-.082-9.827h-22.23C2006.339,1867.869,2006.37,1871.088,2006.4,1874.392Z" transform="translate(-878.462 -1336.284)"/><path class="n" d="M1946.6,1852.759h22.25c-.042-3.22-.081-6.524-.12-9.829h-22.261C1946.515,1846.235,1946.562,1849.539,1946.6,1852.759Z" transform="translate(-878.462 -1336.284)"/><path class="j" d="M1976.4,1852.759h22.378c-.035-3.22-.066-6.524-.1-9.829h-22.394C1976.322,1846.235,1976.362,1849.539,1976.4,1852.759Z" transform="translate(-878.462 -1336.284)"/><path class="j" d="M2006.191,1852.759h22.251c-.027-3.22-.054-6.524-.082-9.829H2006.1C2006.13,1846.235,2006.162,1849.539,2006.191,1852.759Z" transform="translate(-878.462 -1336.284)"/><path class="j" d="M2074.065,1917.413h46.127c-.008-3.3-.015-6.524-.023-9.824H2074.01C2074.031,1910.889,2074.046,1914.113,2074.065,1917.413Z" transform="translate(-878.462 -1336.284)"/><path class="j" d="M2073.949,1895.945h46.193q-.012-4.957-.027-9.909h-46.221Q2073.923,1890.992,2073.949,1895.945Z" transform="translate(-878.462 -1336.284)"/><path class="j" d="M2073.833,1874.392h46.254c-.007-3.22-.015-6.523-.023-9.827h-46.282C2073.8,1867.869,2073.818,1871.172,2073.833,1874.392Z" transform="translate(-878.462 -1336.284)"/><path class="j" d="M2131.077,1917.413h19.046c0-3.3,0-6.524,0-9.824h-19.062C2131.065,1910.889,2131.07,1914.113,2131.077,1917.413Z" transform="translate(-878.462 -1336.284)"/><path class="j" d="M2131.038,1895.945h19.074c0-3.3,0-6.605,0-9.827h-19.085C2131.027,1889.34,2131.034,1892.64,2131.038,1895.945Z" transform="translate(-878.462 -1336.284)"/><path class="o" d="M1553.282,1681.092h157.3c-.26-9.247-.519-18.5-.779-27.662q-78.86-.122-157.578-.081Q1552.751,1667.218,1553.282,1681.092Z" transform="translate(-878.462 -1336.284)"/><path class="o" d="M1728.342,1681.092h157.435c-.159-9.247-.318-18.5-.477-27.662H1727.594C1727.842,1662.6,1728.09,1671.845,1728.342,1681.092Z" transform="translate(-878.462 -1336.284)"/><path class="o" d="M1903.661,1681.092c52.349.081,104.96.081,157.436.081-.055-9.328-.114-18.5-.167-27.743H1903.089C1903.235,1662.6,1903.514,1671.845,1903.661,1681.092Z" transform="translate(-878.462 -1336.284)"/><path class="o" d="M2078.853,1681.173h157.3q.069-13.869.135-27.743H2078.714C2078.761,1662.677,2078.807,1671.845,2078.853,1681.173Z" transform="translate(-878.462 -1336.284)"/><path class="o" d="M2253.909,1681.173h157.432q.225-13.869.441-27.743H2254.076Q2253.987,1667.3,2253.909,1681.173Z" transform="translate(-878.462 -1336.284)"/><path class="o" d="M2429.1,1681.173h157.435q.372-13.869.743-27.743H2429.569Q2429.331,1667.3,2429.1,1681.173Z" transform="translate(-878.462 -1336.284)"/><path class="o" d="M2604.284,1681.173H2761.72q.53-13.869,1.054-27.743H2605.063Q2604.681,1667.3,2604.284,1681.173Z" transform="translate(-878.462 -1336.284)"/><path class="j" d="M1587.579,1672.918h60.138c-.1-2.975-.19-5.946-.283-8.835-20.147,0-40.289,0-60.174-.086Q1587.419,1668.46,1587.579,1672.918Z" transform="translate(-878.462 -1336.284)"/><path class="j" d="M1660.616,1672.918h15.921c-.09-2.975-.179-5.946-.268-8.835h-15.932C1660.43,1666.972,1660.518,1669.943,1660.616,1672.918Z" transform="translate(-878.462 -1336.284)"/><path class="m" d="M2385.182,1711.934h13.263c-.115-3.467-.225-6.772-.341-10.238h-13.275C2384.95,1705.162,2385.062,1708.467,2385.182,1711.934Z" transform="translate(-878.462 -1336.284)"/><path class="j" d="M2385.91,1733.238h13.248c-.113-3.385-.225-6.689-.337-10.076h-13.255C2385.682,1726.549,2385.794,1729.853,2385.91,1733.238Z" transform="translate(-878.462 -1336.284)"/><path class="j" d="M2405.716,1733.238h85.123c-.093-3.385-.186-6.689-.279-10.076h-85.177C2405.5,1726.549,2405.6,1729.853,2405.716,1733.238Z" transform="translate(-878.462 -1336.284)"/><path class="j" d="M2497.788,1733.238h32.394c-.08-3.385-.166-6.689-.247-9.99-10.765-.086-21.658-.086-32.418-.086C2497.606,1726.549,2497.7,1729.853,2497.788,1733.238Z" transform="translate(-878.462 -1336.284)"/><path class="j" d="M2274.043,2336.555h-4.8q.564-76.912,1.132-154.823.57-78.4,1.151-157.881.579-80.016,1.177-161.1c.391-54.408.794-109.32,1.2-164.4h4.993c-.418,55.079-.84,109.991-1.25,164.4q-.611,81.009-1.224,161.1-.6,79.394-1.2,157.881Q2274.636,2259.636,2274.043,2336.555Z" transform="translate(-878.462 -1336.284)"/><path class="b" d="M1944.845,2245.452H2059.2c.152-40.379-1.893-206.8-1.893-206.8H1941.119S1944.693,2205.073,1944.845,2245.452Z" transform="translate(-878.462 -1336.284)"/><path class="j" d="M1944.845,2245.452H2059.2q.018-3.47.028-6.937h-114.4Q1944.833,2241.983,1944.845,2245.452Z" transform="translate(-878.462 -1336.284)"/><path class="j" d="M1960.1,2228.114h11.528q-.009-4.836-.019-9.417h-11.532Q1960.093,2223.281,1960.1,2228.114Z" transform="translate(-878.462 -1336.284)"/><path class="j" d="M1960.06,2211.678H1971.6q-.006-4.707-.019-9.413c-3.933.086-7.736.086-11.544.086C1960.041,2205.4,1960.053,2208.54,1960.06,2211.678Z" transform="translate(-878.462 -1336.284)"/><path class="j" d="M1960.014,2195.247h11.551q-.012-4.707-.019-9.413h-11.555Q1960,2190.54,1960.014,2195.247Z" transform="translate(-878.462 -1336.284)"/><path class="j" d="M1959.971,2178.814h11.56c0-3.218-.013-6.356-.021-9.493h-11.566C1959.952,2172.458,1959.959,2175.6,1959.971,2178.814Z" transform="translate(-878.462 -1336.284)"/><path class="j" d="M1959.925,2162.221H1971.5q-.012-4.707-.019-9.417H1959.9Q1959.91,2157.509,1959.925,2162.221Z" transform="translate(-878.462 -1336.284)"/><path class="j" d="M1959.878,2145.7h11.586c0-3.219-.011-6.357-.019-9.494h-11.594C1959.863,2139.346,1959.87,2142.484,1959.878,2145.7Z" transform="translate(-878.462 -1336.284)"/><path class="j" d="M1959.832,2129.1h11.6c-.009-3.218-.013-6.356-.019-9.493h-11.606C1959.817,2122.748,1959.824,2125.886,1959.832,2129.1Z" transform="translate(-878.462 -1336.284)"/><path class="j" d="M1959.789,2112.425H1971.4q-.006-4.707-.019-9.413h-11.617Q1959.774,2107.717,1959.789,2112.425Z" transform="translate(-878.462 -1336.284)"/><path class="j" d="M1959.743,2095.831h11.625c-.008-3.138-.016-6.361-.02-9.5h-11.632C1959.724,2089.47,1959.735,2092.693,1959.743,2095.831Z" transform="translate(-878.462 -1336.284)"/><path class="j" d="M1959.7,2079.151h11.636c-.009-3.224-.013-6.442-.019-9.579h-11.645C1959.678,2072.709,1959.688,2075.927,1959.7,2079.151Z" transform="translate(-878.462 -1336.284)"/><path class="j" d="M1959.65,2062.385H1971.3c0-3.218-.011-6.356-.015-9.575h-11.659C1959.634,2056.029,1959.642,2059.167,1959.65,2062.385Z" transform="translate(-878.462 -1336.284)"/><path class="j" d="M1983.241,2195.247h48.226q0-4.707.015-9.413h-48.254Q1983.234,2190.54,1983.241,2195.247Z" transform="translate(-878.462 -1336.284)"/><path class="j" d="M1983.221,2178.814H2031.5c0-3.218.011-6.356.015-9.493h-48.3C1983.213,2172.458,1983.217,2175.6,1983.221,2178.814Z" transform="translate(-878.462 -1336.284)"/><path class="j" d="M2004.316,2112.425h27.305q.012-4.707.02-9.413h-27.325Z" transform="translate(-878.462 -1336.284)"/><path class="j" d="M2110.659,1672.918c20.132,0,40.131.082,60.266.082,0-2.971,0-5.946,0-8.836h-60.3C2110.64,1667.054,2110.647,1670.029,2110.659,1672.918Z" transform="translate(-878.462 -1336.284)"/><path class="j" d="M2190.134,1673h16.846c.008-2.971.017-5.946.027-8.836h-16.853C2190.146,1667.054,2190.142,1670.029,2190.134,1673Z" transform="translate(-878.462 -1336.284)"/><path class="j" d="M2458.978,1673H2472.8c.058-2.971.116-5.946.175-8.836h-13.826C2459.09,1667.054,2459.032,1670.029,2458.978,1673Z" transform="translate(-878.462 -1336.284)"/><path class="j" d="M2538.589,1673h-36.583c.067-2.971.128-5.946.194-8.836h36.6C2538.732,1667.054,2538.662,1670.029,2538.589,1673Z" transform="translate(-878.462 -1336.284)"/><path class="j" d="M2546.614,1673h13.817c.078-2.971.152-5.946.226-8.836h-13.826C2546.762,1667.054,2546.688,1670.029,2546.614,1673Z" transform="translate(-878.462 -1336.284)"/><path class="o" d="M2377.167,2321.445h276.08q2.22-68.616,4.467-137.9c1.5-46.4,3.144-93.063,4.667-140.046,1.53-47.312,3.084-94.957,4.63-142.684q2.34-72.207,4.706-145.326h-286.3q-1.046,73.071-2.084,145.241-1.028,71.712-2.049,142.769c-.673,46.983-1.476,93.721-2.138,140.128Q2378.149,2252.866,2377.167,2321.445Z" transform="translate(-878.462 -1336.284)"/><path class="j" d="M2377.167,2321.445h276.08c.086-2.643.171-5.2.255-7.845H2377.28C2377.241,2316.242,2377.206,2318.888,2377.167,2321.445Z" transform="translate(-878.462 -1336.284)"/><path class="j" d="M2396.268,2302.785h48.153c.058-3.138.117-6.194.174-9.332h-48.183C2396.365,2296.591,2396.315,2299.647,2396.268,2302.785Z" transform="translate(-878.462 -1336.284)"/><path class="j" d="M2396.52,2286.435h48.206c.059-3.057.117-6.2.175-9.332h-48.234C2396.617,2280.24,2396.57,2283.378,2396.52,2286.435Z" transform="translate(-878.462 -1336.284)"/><path class="j" d="M2411.607,2215.505h212.534c.03-1.158.066-2.312.1-3.3H2411.662C2411.647,2213.193,2411.626,2214.347,2411.607,2215.505Z" transform="translate(-878.462 -1336.284)"/><path class="j" d="M2459.59,2302.785h48.152q.111-4.707.217-9.413c-16.063,0-31.995,0-48.187.081C2459.71,2296.591,2459.651,2299.647,2459.59,2302.785Z" transform="translate(-878.462 -1336.284)"/><path class="j" d="M2459.911,2286.435h48.207c.07-3.057.139-6.2.209-9.332h-48.106C2460.031,2280.24,2459.974,2283.378,2459.911,2286.435Z" transform="translate(-878.462 -1336.284)"/><path class="m" d="M2575.43,2286.353h13.411c.089-3.056.174-6.194.26-9.25h-13.419C2575.6,2280.24,2575.515,2283.3,2575.43,2286.353Z" transform="translate(-878.462 -1336.284)"/><path class="m" d="M2595.929,2286.353h13.412c.088-3.138.181-6.194.27-9.25h-13.418C2596.1,2280.159,2596.014,2283.3,2595.929,2286.353Z" transform="translate(-878.462 -1336.284)"/><path class="i" d="M2401.059,2183.219h45.217q.089-4.707.179-9.413h-45.248Q2401.131,2178.513,2401.059,2183.219Z" transform="translate(-878.462 -1336.284)"/><path class="i" d="M2401.386,2162.491h45.278c.061-3.137.12-6.357.182-9.579-15.189,0-30.249,0-45.31.085C2401.485,2156.134,2401.435,2159.354,2401.386,2162.491Z" transform="translate(-878.462 -1336.284)"/><path class="i" d="M2401.715,2141.682c15.072,0,30.14,0,45.34-.081.061-3.219.12-6.357.177-9.579-15.206,0-30.287.084-45.367.084C2401.815,2135.244,2401.764,2138.382,2401.715,2141.682Z" transform="translate(-878.462 -1336.284)"/><path class="j" d="M2457.1,2183.219h18.853q.1-4.707.194-9.413h-18.861Z" transform="translate(-878.462 -1336.284)"/><path class="j" d="M2457.506,2162.491h18.88c.062-3.137.128-6.357.2-9.579h-18.892C2457.63,2156.134,2457.568,2159.354,2457.506,2162.491Z" transform="translate(-878.462 -1336.284)"/><path class="b" d="M2402.845,2069.927h45.678c.062-3.222.12-6.359.183-9.579H2403C2402.946,2063.568,2402.9,2066.705,2402.845,2069.927Z" transform="translate(-878.462 -1336.284)"/><path class="i" d="M2403.179,2048.87h45.74q.092-4.828.181-9.661h-45.77Q2403.255,2044.039,2403.179,2048.87Z" transform="translate(-878.462 -1336.284)"/><path class="k" d="M2403.508,2027.814h45.806c.061-3.305.12-6.524.181-9.742h-45.833C2403.613,2021.29,2403.563,2024.509,2403.508,2027.814Z" transform="translate(-878.462 -1336.284)"/><path class="j" d="M2459.3,2069.927h18.989c.066-3.222.132-6.359.2-9.579h-19C2459.427,2063.568,2459.366,2066.705,2459.3,2069.927Z" transform="translate(-878.462 -1336.284)"/><path class="j" d="M2459.71,2048.87h19.02q.1-4.828.2-9.661H2459.9Q2459.807,2044.039,2459.71,2048.87Z" transform="translate(-878.462 -1336.284)"/><path class="n" d="M2404.658,1954.987h46.018c.059-3.305.12-6.524.184-9.746h-46.051C2404.76,1948.463,2404.709,1951.682,2404.658,1954.987Z" transform="translate(-878.462 -1336.284)"/><path class="j" d="M2405,1933.6h46.08c.063-3.3.121-6.524.183-9.742H2405.15C2405.1,1927.072,2405.045,1930.3,2405,1933.6Z" transform="translate(-878.462 -1336.284)"/><path class="j" d="M2405.332,1912.21h46.142c.063-3.219.125-6.523.183-9.741h-46.17C2405.433,1905.687,2405.383,1908.991,2405.332,1912.21Z" transform="translate(-878.462 -1336.284)"/><path class="j" d="M2461.535,1954.987h19.127c.069-3.305.136-6.524.2-9.746H2461.72C2461.659,1948.463,2461.6,1951.682,2461.535,1954.987Z" transform="translate(-878.462 -1336.284)"/><path class="j" d="M2461.949,1933.6h19.156c.069-3.3.135-6.524.2-9.742h-19.166C2462.073,1927.072,2462.012,1930.3,2461.949,1933.6Z" transform="translate(-878.462 -1336.284)"/><path class="j" d="M2406.5,1838.309h46.359c.063-3.305.124-6.522.186-9.909h-46.389Q2406.572,1833.35,2406.5,1838.309Z" transform="translate(-878.462 -1336.284)"/><path class="j" d="M2406.839,1816.591h46.425q.088-4.953.182-9.91h-46.452Q2406.911,1811.637,2406.839,1816.591Z" transform="translate(-878.462 -1336.284)"/><path class="j" d="M2407.18,1794.874h46.487q.093-4.955.186-9.909h-46.518Q2407.26,1789.923,2407.18,1794.874Z" transform="translate(-878.462 -1336.284)"/><path class="j" d="M2463.8,1838.309h19.276c.066-3.305.136-6.522.2-9.909h-19.287C2463.924,1831.787,2463.863,1835,2463.8,1838.309Z" transform="translate(-878.462 -1336.284)"/><path class="j" d="M2464.216,1816.591h19.3q.1-4.953.2-9.91h-19.31Q2464.31,1811.637,2464.216,1816.591Z" transform="translate(-878.462 -1336.284)"/><path class="j" d="M2514.169,2183.219h18.981q.051-2.109.1-4.21h-18.985C2514.234,2180.411,2514.205,2181.813,2514.169,2183.219Z" transform="translate(-878.462 -1336.284)"/><path class="j" d="M2550.224,2187.925c-3.052-5.2-6.1-10.405-9.032-15.688-1.29.659-2.58,1.32-3.874,2.065,2.928,5.2,5.985,10.4,9.033,15.688C2547.645,2189.246,2548.935,2188.583,2550.224,2187.925Z" transform="translate(-878.462 -1336.284)"/><path class="j" d="M2551.363,2183.219c2.166,0,4.463-.085,6.752-.085.039-1.321.074-2.723.109-4.125h-6.752Q2551.42,2181.112,2551.363,2183.219Z" transform="translate(-878.462 -1336.284)"/><path class="j" d="M2566.191,2186.109a5.241,5.241,0,0,0,5.354-4.955,4.978,4.978,0,0,0-5.09-5.04,5.31,5.31,0,0,0-5.357,5.04A4.919,4.919,0,0,0,2566.191,2186.109Z" transform="translate(-878.462 -1336.284)"/><path class="j" d="M2585.715,2189.246c1.6-2.727,3.335-5.451,5.071-8.173,1.731-2.645,3.463-5.451,5.2-8.1h-19.5c1.456,2.645,3.04,5.451,4.493,8.1Q2583.345,2185.156,2585.715,2189.246Z" transform="translate(-878.462 -1336.284)"/><path class="j" d="M2074.969,1940.948h19.146c-.009-1.488-.011-2.89-.019-4.3h-19.151C2074.952,1938.058,2074.96,1939.46,2074.969,1940.948Z" transform="translate(-878.462 -1336.284)"/><path class="j" d="M2111.6,1945.9c-3.254-5.45-6.5-10.819-9.761-16.268-1.29.662-2.584,1.321-3.746,2.064,3.125,5.45,6.379,10.9,9.633,16.269C2109.013,1947.223,2110.3,1946.561,2111.6,1945.9Z" transform="translate(-878.462 -1336.284)"/><path class="j" d="M2112.615,1940.948h6.857c0-1.488-.008-2.89-.012-4.3H2112.6C2112.608,1938.058,2112.612,1939.46,2112.615,1940.948Z" transform="translate(-878.462 -1336.284)"/><path class="j" d="M2127.757,1944a5.162,5.162,0,1,0-.019-10.32,5.185,5.185,0,0,0-5.295,5.118A5.324,5.324,0,0,0,2127.757,1944Z" transform="translate(-878.462 -1336.284)"/><path class="j" d="M2147.68,1947.223c1.681-2.808,3.226-5.7,4.907-8.424,1.685-2.806,3.366-5.614,5.179-8.422H2137.7q2.526,4.212,5.058,8.422C2144.313,1941.525,2146,1944.415,2147.68,1947.223Z" transform="translate(-878.462 -1336.284)"/><path class="j" d="M1732.146,2055.56c-3.359-5.288-6.718-10.652-9.952-15.94-1.27.663-2.532,1.407-3.668,2.15,3.235,5.285,6.6,10.652,9.955,15.936C1729.617,2056.963,1730.879,2056.218,1732.146,2055.56Z" transform="translate(-878.462 -1336.284)"/><path class="j" d="M1733.169,2050.769h6.682q-.06-2.1-.113-4.211h-6.682C1733.1,2047.965,1733.13,2049.367,1733.169,2050.769Z" transform="translate(-878.462 -1336.284)"/><path class="j" d="M1748.151,2053.826a5.06,5.06,0,0,0,5.133-5.122,5.288,5.288,0,0,0-5.4-5.116,5.037,5.037,0,0,0-5.128,5.116A5.389,5.389,0,0,0,1748.151,2053.826Z" transform="translate(-878.462 -1336.284)"/><path class="i" d="M1768.143,2056.963c1.6-2.723,3.2-5.532,4.8-8.259,1.472-2.8,3.072-5.532,4.675-8.34h-19.8c1.616,2.808,3.358,5.536,5.1,8.34C1764.661,2051.431,1766.4,2054.24,1768.143,2056.963Z" transform="translate(-878.462 -1336.284)"/><path class="m" d="M1799.058,2055.56c-3.334-5.288-6.67-10.652-10.013-15.94-1.27.663-2.537,1.407-3.675,2.15,3.211,5.285,6.549,10.652,9.885,15.936C1796.522,2056.963,1797.788,2056.218,1799.058,2055.56Z" transform="translate(-878.462 -1336.284)"/><path class="m" d="M1812.674,2055.56c-3.331-5.288-6.666-10.652-9.87-15.94-1.27.663-2.541,1.407-3.807,2.15,3.207,5.285,6.538,10.652,9.87,15.936C1810.136,2056.963,1811.4,2056.218,1812.674,2055.56Z" transform="translate(-878.462 -1336.284)"/><path class="j" d="M1820.275,2050.769h19.143q-.046-2.1-.09-4.211h-19.146Q1820.227,2048.668,1820.275,2050.769Z" transform="translate(-878.462 -1336.284)"/><path class="j" d="M1846.057,2055.065h4.366q-.048-2.109-.086-4.212h-4.369C1846,2052.257,1846.025,2053.659,1846.057,2055.065Z" transform="translate(-878.462 -1336.284)"/><path class="j" d="M1845.883,2046.476h4.369c-.027-1.406-.054-2.808-.085-4.129h-4.37C1845.824,2043.668,1845.856,2045.07,1845.883,2046.476Z" transform="translate(-878.462 -1336.284)"/><path class="j" d="M1724.685,2018.153q-5.055-8.053-10.114-16.1c-1.142.661-2.409,1.406-3.549,2.149,3.247,5.365,6.621,10.9,9.987,16.1C1722.147,2019.555,1723.414,2018.815,1724.685,2018.153Z" transform="translate(-878.462 -1336.284)"/><path class="j" d="M1738.459,2018.153q-5.042-8.053-10.1-16.1c-1.271.661-2.541,1.406-3.68,2.149,3.243,5.365,6.612,10.9,9.975,16.1C1735.922,2019.555,1737.189,2018.815,1738.459,2018.153Z" transform="translate(-878.462 -1336.284)"/><path class="j" d="M1746.056,2013.28h19.19q-.06-2.1-.109-4.211h-19.193Q1746,2011.178,1746.056,2013.28Z" transform="translate(-878.462 -1336.284)"/><path class="j" d="M1771.92,2017.656h4.377c-.035-1.486-.069-2.888-.105-4.29h-4.377C1771.851,2014.768,1771.885,2016.17,1771.92,2017.656Z" transform="translate(-878.462 -1336.284)"/><path class="j" d="M1771.707,2008.989h4.377q-.051-2.11-.1-4.212H1771.6Q1771.654,2006.88,1771.707,2008.989Z" transform="translate(-878.462 -1336.284)"/><path class="j" d="M1795.751,2018.153c-3.348-5.369-6.695-10.734-9.913-16.1-1.275.661-2.546,1.406-3.815,2.149,3.222,5.365,6.573,10.9,9.915,16.1C1793.205,2019.555,1794.476,2018.815,1795.751,2018.153Z" transform="translate(-878.462 -1336.284)"/><path class="j" d="M1809.4,2018.153c-3.338-5.369-6.682-10.734-9.9-16.1-1.275.661-2.546,1.406-3.948,2.149,3.475,5.365,6.822,10.9,10.156,16.1C1806.853,2019.555,1808.122,2018.815,1809.4,2018.153Z" transform="translate(-878.462 -1336.284)"/><path class="j" d="M1818.826,2019.555c1.611-2.805,3.227-5.613,4.842-8.34,1.484-2.8,3.1-5.613,4.714-8.421h-19.845q2.6,4.212,5.21,8.421C1815.355,2013.942,1817.091,2016.75,1818.826,2019.555Z" transform="translate(-878.462 -1336.284)"/><path class="j" d="M1844.314,2019.555c1.616-2.805,3.233-5.613,4.853-8.34,1.492-2.8,3.112-5.613,4.73-8.421h-19.843q2.6,4.212,5.2,8.421C1840.85,2013.942,1842.582,2016.75,1844.314,2019.555Z" transform="translate(-878.462 -1336.284)"/><path class="j" d="M1865.75,2016.336a5.11,5.11,0,0,0,5.183-5.121,5.4,5.4,0,0,0-5.376-5.2,5.085,5.085,0,0,0-5.183,5.2A5.352,5.352,0,0,0,1865.75,2016.336Z" transform="translate(-878.462 -1336.284)"/><path class="j" d="M1765.517,1962.582h27.65c-.078-3.3-.156-6.523-.228-9.827h-27.666C1765.354,1956.059,1765.436,1959.279,1765.517,1962.582Z" transform="translate(-878.462 -1336.284)"/><path class="j" d="M1764.784,1933.267c6.342,0,12.683,0,19.156.085-.078-3.385-.156-6.609-.232-9.913h-19.171C1764.619,1926.743,1764.7,1929.967,1764.784,1933.267Z" transform="translate(-878.462 -1336.284)"/><path class="j" d="M1764.045,1903.871h19.066c-.081-3.22-.159-6.605-.237-9.825H1763.8C1763.878,1897.266,1763.96,1900.57,1764.045,1903.871Z" transform="translate(-878.462 -1336.284)"/><path class="j" d="M1763.3,1874.311h100.175c-.059-3.223-.12-6.442-.183-9.746H1763.057C1763.143,1867.869,1763.219,1871.007,1763.3,1874.311Z" transform="translate(-878.462 -1336.284)"/><path class="j" d="M1744.329,1962.582h-5.04q-2.174-81.252-4.377-163.5h5.093Q1742.185,1881.331,1744.329,1962.582Z" transform="translate(-878.462 -1336.284)"/><path class="j" d="M2502.873,2055.065h18.88c.036-1.488.067-2.89.1-4.212h-18.888Q2502.921,2052.836,2502.873,2055.065Z" transform="translate(-878.462 -1336.284)"/><path class="j" d="M2539.1,2059.934c-3.08-5.447-6.163-10.734-9.247-16.1-1.3.659-2.6,1.4-3.776,2.145,2.956,5.369,6.039,10.654,9.117,16.019C2536.5,2061.258,2537.8,2060.6,2539.1,2059.934Z" transform="translate(-878.462 -1336.284)"/><path class="j" d="M2540.246,2055.065h6.81q.052-2.232.105-4.212h-6.807Q2540.3,2052.836,2540.246,2055.065Z" transform="translate(-878.462 -1336.284)"/><path class="j" d="M2555.2,2058.036a5.388,5.388,0,0,0,5.4-5.118,5.1,5.1,0,0,0-5.137-5.12,5.344,5.344,0,0,0-5.4,5.12A5.063,5.063,0,0,0,2555.2,2058.036Z" transform="translate(-878.462 -1336.284)"/><path class="m" d="M2574.888,2061.258c1.748-2.808,3.49-5.616,5.234-8.34s3.494-5.534,5.24-8.34h-19.921c1.6,2.806,3.2,5.614,4.791,8.34C2571.7,2055.642,2573.3,2058.45,2574.888,2061.258Z" transform="translate(-878.462 -1336.284)"/><path class="j" d="M2605.869,2059.934c-3.184-5.447-6.244-10.734-9.177-16.1-1.173.659-2.483,1.4-3.66,2.145,2.808,5.285,5.868,10.654,8.925,16.019C2603.134,2061.258,2604.563,2060.6,2605.869,2059.934Z" transform="translate(-878.462 -1336.284)"/><path class="j" d="M2619.477,2059.934c-3.048-5.447-6.105-10.734-9.034-16.1-1.3.659-2.61,1.4-3.788,2.145,2.929,5.285,5.986,10.654,9.037,16.019C2616.87,2061.258,2618.175,2060.6,2619.477,2059.934Z" transform="translate(-878.462 -1336.284)"/><path class="j" d="M2625.528,2059.356h4.369c.042-1.483.085-2.889.129-4.291h-4.367C2625.617,2056.467,2625.575,2057.873,2625.528,2059.356Z" transform="translate(-878.462 -1336.284)"/><path class="j" d="M2625.791,2050.687h4.366c.042-1.32.084-2.722.127-4.129h-4.369C2625.872,2047.965,2625.83,2049.367,2625.791,2050.687Z" transform="translate(-878.462 -1336.284)"/><path class="j" d="M2636.7,2059.356h4.237c.046-1.483.089-2.889.136-4.291h-4.242C2636.788,2056.467,2636.746,2057.873,2636.7,2059.356Z" transform="translate(-878.462 -1336.284)"/><path class="j" d="M2636.966,2050.687h4.238c.046-1.32.09-2.722.132-4.129H2637.1C2637.052,2047.965,2637.008,2049.367,2636.966,2050.687Z" transform="translate(-878.462 -1336.284)"/><path class="j" d="M2543.124,1938.14h6.856c.04-1.488.074-2.89.11-4.3h-6.861C2543.194,1935.25,2543.16,1936.652,2543.124,1938.14Z" transform="translate(-878.462 -1336.284)"/><path class="j" d="M2558.189,1941.111a5.347,5.347,0,0,0,5.434-5.118,5.185,5.185,0,0,0-5.17-5.2,5.43,5.43,0,0,0-5.44,5.2A5.032,5.032,0,0,0,2558.189,1941.111Z" transform="translate(-878.462 -1336.284)"/><path class="m" d="M2578.021,1944.5c1.759-2.89,3.518-5.7,5.276-8.5s3.522-5.7,5.28-8.424h-20.072c1.611,2.727,3.218,5.616,4.826,8.424C2574.811,1938.8,2576.414,1941.607,2578.021,1944.5Z" transform="translate(-878.462 -1336.284)"/><path class="j" d="M2609.235,1943.094c-3.08-5.45-6.159-10.9-9.114-16.269-1.314.663-2.627,1.324-3.812,2.065,2.952,5.45,6.035,10.819,9.115,16.351C2606.609,1944.5,2607.922,1943.752,2609.235,1943.094Z" transform="translate(-878.462 -1336.284)"/><path class="j" d="M2622.948,1943.094c-3.076-5.45-6.152-10.9-9.1-16.269-1.313.663-2.63,1.324-3.815,2.065,2.948,5.45,6.028,10.819,9.1,16.351C2620.318,1944.5,2621.635,1943.752,2622.948,1943.094Z" transform="translate(-878.462 -1336.284)"/><path class="j" d="M2640.3,1942.517h4.269c.042-1.488.088-2.89.131-4.3h-4.273C2640.386,1939.627,2640.344,1941.029,2640.3,1942.517Z" transform="translate(-878.462 -1336.284)"/><path class="j" d="M2640.568,1933.844h4.269c.047-1.483.093-2.971.136-4.373H2640.7C2640.658,1930.873,2640.615,1932.275,2640.568,1933.844Z" transform="translate(-878.462 -1336.284)"/><path class="m" d="M2506.619,1944.5c1.615-2.89,3.363-5.7,5.109-8.5s3.494-5.7,5.242-8.424h-19.941c1.49,2.727,3.114,5.616,4.733,8.424S2505,1941.607,2506.619,1944.5Z" transform="translate(-878.462 -1336.284)"/><path class="m" d="M2530.031,1944.5c1.624-2.89,3.37-5.7,5.121-8.5s3.5-5.7,5.253-8.424h-19.942c1.492,2.727,3.107,5.616,4.723,8.424S2528.421,1941.607,2530.031,1944.5Z" transform="translate(-878.462 -1336.284)"/><path class="j" d="M2629.99,1941.111a5.382,5.382,0,0,0,5.462-5.118,5.156,5.156,0,0,0-5.148-5.2,5.458,5.458,0,0,0-5.462,5.2A5,5,0,0,0,2629.99,1941.111Z" transform="translate(-878.462 -1336.284)"/><path class="j" d="M2107.12,2184.854h44.045q-.139-4.833-.279-9.417h-44.077C2106.91,2178.494,2107.014,2181.717,2107.12,2184.854Z" transform="translate(-878.462 -1336.284)"/><path class="j" d="M2109.317,2219.56h43.922q-.1-4.707-.209-9.413h-43.95Q2109.2,2214.854,2109.317,2219.56Z" transform="translate(-878.462 -1336.284)"/><path class="m" d="M2179.362,2188.154c1.44-2.722,3.009-5.53,4.582-8.173,1.569-2.726,3.142-5.45,4.715-8.091h-19.507c1.594,2.641,3.319,5.365,5.042,8.091C2175.914,2182.624,2177.641,2185.432,2179.362,2188.154Z" transform="translate(-878.462 -1336.284)"/><path class="j" d="M2178.088,2221.462h4.3c-.025-1.406-.053-2.728-.084-4.13H2178C2178.033,2218.734,2178.061,2220.056,2178.088,2221.462Z" transform="translate(-878.462 -1336.284)"/><path class="j" d="M2177.917,2213.122h4.305c-.027-1.406-.059-2.808-.086-4.129h-4.3C2177.86,2210.314,2177.887,2211.716,2177.917,2213.122Z" transform="translate(-878.462 -1336.284)"/><path class="o" d="M1563.714,2379.989h9.56a4.056,4.056,0,0,1-4.049-3.714q-3.427-88.557-6.9-178.608-3.5-90.666-7.069-182.9-3.591-93.014-7.237-187.2-3.67-95.115-7.4-191.732a3.961,3.961,0,0,1,3.927-4.126h-10.025a3.99,3.99,0,0,0-4.06,4.126q3.8,96.611,7.531,191.732,3.7,94.256,7.356,187.2,3.613,92.145,7.181,182.9,3.528,89.922,7.016,178.608A4.089,4.089,0,0,0,1563.714,2379.989Z" transform="translate(-878.462 -1336.284)"/><path class="o" d="M2751.326,2379.908h-9.559a4.071,4.071,0,0,0,4.048-3.8q3.421-88.677,6.894-178.688,3.5-90.66,7.051-182.652,3.579-92.769,7.224-187.111,3.662-94.878,7.4-191.65a3.964,3.964,0,0,0-3.927-4.13h10.025a3.991,3.991,0,0,1,4.06,4.13c-2.53,64.4-5.04,128.4-7.519,191.65q-3.7,94.257-7.345,187.111-3.607,92.025-7.166,182.652-3.528,89.921-7.012,178.688A4.1,4.1,0,0,1,2751.326,2379.908Z" transform="translate(-878.462 -1336.284)"/><path class="p" d="M2678.325,2406.977h15.466a8.573,8.573,0,0,0,8.469-8.119v-.108a7.793,7.793,0,0,0-7.905-8.01H2678.87a8.465,8.465,0,0,0-8.455,8.01.43.43,0,0,0,0,.108A7.9,7.9,0,0,0,2678.325,2406.977Z" transform="translate(-878.462 -1336.284)"/><path class="k" d="M1762.538,1807.426h26.879c-.066-2.809-.131-5.614-.194-8.34h-26.895C1762.4,1801.812,1762.468,1804.617,1762.538,1807.426Z" transform="translate(-878.462 -1336.284)"/><path class="k" d="M1762.956,1824.186c9,0,17.862.086,26.852.086-.062-2.809-.127-5.618-.193-8.34h-26.864C1762.82,1818.654,1762.89,1821.463,1762.956,1824.186Z" transform="translate(-878.462 -1336.284)"/><path class="n" d="M1763.378,1840.952c8.988.081,17.839.081,26.825.081-.066-2.724-.131-5.613-.2-8.341h-26.837C1763.238,1835.42,1763.309,1838.224,1763.378,1840.952Z" transform="translate(-878.462 -1336.284)"/><path class="k" d="M1799.725,1807.426h27.138c-.058-2.809-.117-5.614-.174-8.34h-27.154C1799.6,1801.812,1799.663,1804.617,1799.725,1807.426Z" transform="translate(-878.462 -1336.284)"/><path class="k" d="M1800.109,1824.272h27.11c-.061-2.809-.12-5.618-.173-8.34h-27.127C1799.98,1818.654,1800.042,1821.463,1800.109,1824.272Z" transform="translate(-878.462 -1336.284)"/><path class="n" d="M1800.487,1841.033h27.085c-.058-2.724-.116-5.532-.178-8.341h-27.1C1800.36,1835.42,1800.426,1838.309,1800.487,1841.033Z" transform="translate(-878.462 -1336.284)"/><path class="b" d="M1278.287,1794.219l116.552-31.227a13.5,13.5,0,0,1,16.487,9.516l31.229,116.553a13.5,13.5,0,0,1-9.517,16.486l-116.554,31.229a13.494,13.494,0,0,1-16.486-9.518l-31.229-116.551A13.5,13.5,0,0,1,1278.287,1794.219Z" transform="translate(-878.462 -1336.284)"/><path class="j" d="M1299.529,1769.139l120.493,6.4a17.373,17.373,0,0,1,16.385,18.213l-6.4,120.493a17.373,17.373,0,0,1-18.213,16.384l-120.493-6.4a17.376,17.376,0,0,1-16.385-18.214l6.4-120.491a17.376,17.376,0,0,1,18.214-16.386Zm120.1,14.116-120.492-6.4a9.643,9.643,0,0,0-10.1,9.064l-6.4,120.492a9.643,9.643,0,0,0,9.064,10.1l120.493,6.4a9.646,9.646,0,0,0,10.1-9.064l6.4-120.493a9.641,9.641,0,0,0-9.063-10.1Z" transform="translate(-878.462 -1336.284)"/><path class="q" d="M1450.716,1655.48l39.476,68.4a4.758,4.758,0,0,1-4.117,7.136h-78.952a4.758,4.758,0,0,1-4.118-7.136l39.477-68.4a4.752,4.752,0,0,1,8.234,0Z" transform="translate(-878.462 -1336.284)"/><path class="b" d="M2796.862,1820.262a63.965,63.965,0,1,1-63.966,63.965A63.963,63.963,0,0,1,2796.862,1820.262Z" transform="translate(-878.462 -1336.284)"/><path class="q" d="M2922.471,1809.083l39.476,68.4a4.758,4.758,0,0,1-4.118,7.136h-78.951a4.758,4.758,0,0,1-4.119-7.136l39.476-68.4a4.754,4.754,0,0,1,8.236,0Z" transform="translate(-878.462 -1336.284)"/><path class="q" d="M2917.594,2125.293h0a9.765,9.765,0,0,1,4.005,13.178L2913,2154.585l16.114,8.6a9.766,9.766,0,0,1,4,13.179v0a9.767,9.767,0,0,1-13.179,4.005l-16.114-8.606-8.6,16.113a9.765,9.765,0,0,1-13.178,4h0a9.766,9.766,0,0,1-4.005-13.178l8.606-16.114-16.114-8.6a9.766,9.766,0,0,1-4-13.179v0a9.765,9.765,0,0,1,13.179-4.006l16.114,8.607,8.6-16.114A9.765,9.765,0,0,1,2917.594,2125.293Z" transform="translate(-878.462 -1336.284)"/><path class="q" d="M2853.7,2022.352l34.87-14.535a7.949,7.949,0,0,1,10.362,4.266h0a7.948,7.948,0,0,1-4.265,10.362l-34.871,14.534a7.95,7.95,0,0,1-10.361-4.269h0a7.942,7.942,0,0,1,4.265-10.358Zm10.078,24.187a7.945,7.945,0,0,0-4.264,10.357h0a7.943,7.943,0,0,0,10.362,4.265l34.871-14.529a7.951,7.951,0,0,0,4.265-10.362h0a7.945,7.945,0,0,0-10.363-4.265Z" transform="translate(-878.462 -1336.284)"/><rect class="r" x="3073.506" y="2014.505" width="21.051" height="21.029" transform="translate(-1087.128 2353.096) rotate(-60.105)"/><rect class="r" x="3052.195" y="2051.579" width="21.052" height="21.027" transform="matrix(0.498, -0.867, 0.867, 0.498, -1129.833, 2353.468)"/><rect class="d" x="2843.38" y="2454.027" width="21.051" height="21.029" transform="translate(-1583.6 2374.032) rotate(-60.104)"/><rect class="d" x="2822.067" y="2491.101" width="21.052" height="21.026" transform="translate(-1626.292 2374.556) rotate(-60.111)"/><path class="q" d="M2367.592,1433.518l0,0a8.315,8.315,0,0,1,3.408,11.229l-7.333,13.736,13.732,7.333a8.326,8.326,0,0,1,3.414,11.233l0,0a8.317,8.317,0,0,1-11.23,3.409l-13.735-7.332-7.333,13.732a8.327,8.327,0,0,1-11.234,3.412l0,0a8.317,8.317,0,0,1-3.409-11.23l7.334-13.735-13.733-7.333a8.324,8.324,0,0,1-3.412-11.234l0,0a8.317,8.317,0,0,1,11.23-3.41l13.736,7.333,7.333-13.732A8.325,8.325,0,0,1,2367.592,1433.518Z" transform="translate(-878.462 -1336.284)"/><rect class="r" x="2266.808" y="1498.987" width="21.051" height="21.029" transform="translate(-1044.75 1395.33) rotate(-60.109)"/><rect class="r" x="2245.496" y="1536.061" width="21.052" height="21.027" transform="translate(-1087.557 1395.502) rotate(-60.11)"/><path class="q" d="M2874.294,2323.582l-.557,63.85a3.844,3.844,0,0,1-5.8,3.276l-55.008-32.388a3.842,3.842,0,0,1,.058-6.657l55.562-31.462a3.844,3.844,0,0,1,5.741,3.381Z" transform="translate(-878.462 -1336.284)"/><path class="j" d="M1363.789,1751.424l93.711,4.979a13.513,13.513,0,0,1,12.744,14.165l-4.978,93.71a13.515,13.515,0,0,1-14.166,12.744l-93.71-4.978a13.513,13.513,0,0,1-12.745-14.165l4.979-93.711a13.513,13.513,0,0,1,14.165-12.744Zm93.4,10.979-93.706-4.974a7.5,7.5,0,0,0-7.86,7.05l-4.973,93.706a7.5,7.5,0,0,0,7.05,7.859l93.706,4.974a7.447,7.447,0,0,0,5.38-1.909,7.37,7.37,0,0,0,2.479-5.141l4.974-93.706a7.454,7.454,0,0,0-1.91-5.38A7.368,7.368,0,0,0,1457.189,1762.4Z" transform="translate(-878.462 -1336.284)"/><path class="j" d="M1295.288,1860.288l79.5,33.042-3.931,9.464-79.5-33.043,3.931-9.463Zm53.831-61.42,17.982,7.472-3.932,9.468-17.981-7.477,3.931-9.463Zm-24.133-10.033,17.983,7.477-3.936,9.463-17.982-7.472,3.935-9.468Zm-9.439,22.716-3.936,9.463,66.723,27.731,3.932-9.463-66.719-27.731Zm-12.589,30.283-3.933,9.464,39.748,16.521,3.932-9.467Z" transform="translate(-878.462 -1336.284)"/><path class="j" d="M2745.18,1606.827l263.753-29.273a12.642,12.642,0,0,1,13.9,11.124l39.465,355.59a12.646,12.646,0,0,1-11.12,13.9l-263.754,29.273a12.613,12.613,0,0,1-13.9-11.125l-39.464-355.589a12.621,12.621,0,0,1,11.121-13.9Zm264.609-21.572-263.754,29.273a4.865,4.865,0,0,0-4.276,5.345l39.464,355.592A4.825,4.825,0,0,0,2783,1978.7a4.9,4.9,0,0,0,3.568,1.038l263.754-29.272a4.843,4.843,0,0,0,4.277-5.346l-39.465-355.593a4.838,4.838,0,0,0-1.793-3.239A4.773,4.773,0,0,0,3009.789,1585.255Z" transform="translate(-878.462 -1336.284)"/><path class="j" d="M2888.936,1817.717h29.622q.081-3.5.155-6.605h-29.629Q2889.007,1814.221,2888.936,1817.717Z" transform="translate(-878.462 -1336.284)"/><path class="j" d="M2945.778,1825.356c-4.834-8.545-9.668-16.838-14.507-25.256-2.041,1.034-4.086,2.2-5.926,3.367,4.636,8.424,9.475,16.713,14.305,25.128C2941.691,1827.437,2943.733,1826.394,2945.778,1825.356Z" transform="translate(-878.462 -1336.284)"/><path class="j" d="M2947.567,1817.717h10.683q.089-3.5.168-6.605h-10.68Q2947.659,1814.221,2947.567,1817.717Z" transform="translate(-878.462 -1336.284)"/><path class="j" d="M2971.026,1822.377a8.449,8.449,0,0,0,8.471-8.026,8,8,0,0,0-8.057-8.034,8.386,8.386,0,0,0-8.471,8.034A7.943,7.943,0,0,0,2971.026,1822.377Z" transform="translate(-878.462 -1336.284)"/><path class="k" d="M3001.918,1827.437c2.738-4.408,5.474-8.813,8.209-13.086s5.481-8.684,8.223-13.084h-31.256c2.506,4.4,5.016,8.808,7.518,13.084C2996.918,1818.624,2999.42,1823.029,3001.918,1827.437Z" transform="translate(-878.462 -1336.284)"/><path class="j" d="M2684.513,1577.6c-4.993-8.545-9.8-16.839-14.395-25.256-1.843,1.034-3.9,2.2-5.745,3.367,4.409,8.289,9.208,16.714,14,25.128C2680.225,1579.685,2682.467,1578.642,2684.513,1577.6Z" transform="translate(-878.462 -1336.284)"/><path class="j" d="M2705.864,1577.6c-4.785-8.545-9.58-16.839-14.174-25.256-2.042,1.034-4.094,2.2-5.942,3.367,4.594,8.289,9.39,16.714,14.178,25.128C2701.773,1579.685,2703.822,1578.642,2705.864,1577.6Z" transform="translate(-878.462 -1336.284)"/><path class="j" d="M2715.354,1576.7h6.856c.067-2.325.136-4.533.2-6.733h-6.849C2715.5,1572.165,2715.428,1574.373,2715.354,1576.7Z" transform="translate(-878.462 -1336.284)"/><path class="j" d="M2715.768,1563.1h6.849c.07-2.073.135-4.273.2-6.477h-6.856C2715.9,1558.825,2715.831,1561.025,2715.768,1563.1Z" transform="translate(-878.462 -1336.284)"/><path class="j" d="M2732.882,1576.7h6.647c.074-2.325.14-4.533.213-6.733h-6.655C2733.022,1572.165,2732.956,1574.373,2732.882,1576.7Z" transform="translate(-878.462 -1336.284)"/><path class="j" d="M2733.3,1563.1h6.651c.07-2.073.14-4.273.2-6.477H2733.5C2733.436,1558.825,2733.37,1561.025,2733.3,1563.1Z" transform="translate(-878.462 -1336.284)"/><path class="j" d="M2869.151,1711.17c3.87-.7,7.96-1.445,12.054-2.189-.406-2.626-.794-5.105-1.181-7.588-4.091.743-8.194,1.487-12.062,2.192C2868.348,1706.068,2868.737,1708.544,2869.151,1711.17Z" transform="translate(-878.462 -1336.284)"/><path class="j" d="M2896.588,1711.585a9.555,9.555,0,0,0,7.921-10.73,9.267,9.267,0,0,0-10.753-7.5,9.7,9.7,0,0,0-7.9,10.88A8.988,8.988,0,0,0,2896.588,1711.585Z" transform="translate(-878.462 -1336.284)"/><path class="k" d="M2932.538,1711.205c2.169-5.64,4.366-11.14,6.562-16.633s4.373-11.14,6.594-16.5q-8.892,1.617-17.761,3.228c-5.92,1.073-11.838,2.146-17.532,3.18,3.7,4.28,7.452,8.847,11.175,13.275C2925.074,1702.215,2928.788,1706.638,2932.538,1711.205Z" transform="translate(-878.462 -1336.284)"/><path class="j" d="M2870.8,1664.641q3.748-.681,7.508-1.364c-.4-2.627-.767-5.109-1.143-7.593q-3.759.681-7.511,1.364C2870.033,1659.535,2870.405,1662.014,2870.8,1664.641Z" transform="translate(-878.462 -1336.284)"/><path class="j" d="M2868.507,1649.308c2.5-.456,5.006-.91,7.5-1.362-.39-2.626-.782-5.257-1.157-7.736l-7.512,1.366C2867.713,1644.057,2868.085,1646.536,2868.507,1649.308Z" transform="translate(-878.462 -1336.284)"/><path class="n" d="M2806.994,1734c1.917-5.6,4.094-11.091,6.268-16.578s4.327-11.138,6.527-16.491c-5.927,1.078-11.845,2.154-17.532,3.185-5.923,1.076-11.841,2.149-17.532,3.184,3.495,4.318,7.27,8.882,11.014,13.3S2803.225,1729.438,2806.994,1734Z" transform="translate(-878.462 -1336.284)"/><path class="n" d="M2848.159,1726.529c1.93-5.6,4.107-11.1,6.291-16.587s4.334-11.137,6.543-16.49c-5.915,1.073-11.835,2.15-17.529,3.184-5.918,1.073-11.837,2.15-17.531,3.18,3.494,4.32,7.255,8.887,10.992,13.31S2844.4,1721.962,2848.159,1726.529Z" transform="translate(-878.462 -1336.284)"/><path class="j" d="M2852.226,1665.462a9.619,9.619,0,0,0,7.968-10.742,9.21,9.21,0,0,0-10.71-7.5,9.755,9.755,0,0,0-7.944,10.888A8.935,8.935,0,0,0,2852.226,1665.462Z" transform="translate(-878.462 -1336.284)"/><rect class="r" x="2571.677" y="1403.495" width="21.052" height="21.028" transform="translate(-809.07 1611.665) rotate(-60.107)"/><rect class="r" x="2550.364" y="1440.567" width="21.053" height="21.028" transform="translate(-851.833 1611.899) rotate(-60.11)"/><path class="s" d="M2775.986,1571.147l265.137-11.187a11.015,11.015,0,0,1,7.868,2.894,10.862,10.862,0,0,1,3.536,7.58l15.084,357.456a11.01,11.01,0,0,1-10.471,11.4L2792,1950.481a10.968,10.968,0,0,1-11.4-10.474l-15.084-357.456a10.982,10.982,0,0,1,10.47-11.4Zm265.334-6.724-265.137,11.186a6.506,6.506,0,0,0-6.2,6.748l15.083,357.456a6.412,6.412,0,0,0,2.093,4.5,6.564,6.564,0,0,0,4.653,1.709l265.137-11.187a6.476,6.476,0,0,0,4.493-2.084,6.56,6.56,0,0,0,1.712-4.664l-15.084-357.456a6.507,6.507,0,0,0-6.745-6.2Z" transform="translate(-878.462 -1336.284)"/><path class="q" d="M1410.341,1520.2l31.2-18.791a4.075,4.075,0,0,1,5.577,1.38l18.793,31.2a4.074,4.074,0,0,1-1.384,5.577l-31.2,18.792a4.075,4.075,0,0,1-5.575-1.384l-18.793-31.2A4.074,4.074,0,0,1,1410.341,1520.2Z" transform="translate(-878.462 -1336.284)"/><path class="t" d="M1395.962,1450.831l23.477,22.628a1.963,1.963,0,0,1-.819,3.3l-31.328,9.018a1.958,1.958,0,0,1-2.447-2.356l7.848-31.652a1.963,1.963,0,0,1,3.269-.94Z" transform="translate(-878.462 -1336.284)"/><rect class="r" x="1352.228" y="1549.402" width="9.985" height="9.993" transform="translate(-1581.991 110.796) rotate(-45.893)"/><rect class="r" x="1366.808" y="1563.529" width="9.982" height="9.993" transform="translate(-1587.749 126.469) rotate(-45.918)"/><path class="t" d="M1284.931,1476.816v0a6.144,6.144,0,0,1,2.4,8.328l-5.561,10.057,10.059,5.562a6.146,6.146,0,0,1,2.4,8.33h0a6.146,6.146,0,0,1-8.327,2.4l-10.062-5.564-5.56,10.062a6.142,6.142,0,0,1-8.327,2.4h0a6.148,6.148,0,0,1-2.4-8.331L1265.11,1500l-10.059-5.56a6.14,6.14,0,0,1-2.4-8.327v0a6.145,6.145,0,0,1,8.327-2.4l10.059,5.56,5.564-10.058A6.144,6.144,0,0,1,1284.931,1476.816Z" transform="translate(-878.462 -1336.284)"/><path class="j" d="M1183.3,1605.487,1210,1599.51c-.5-1.939-1-3.872-1.5-5.817-8.967,2.006-17.93,4.013-26.715,5.976Q1182.543,1602.582,1183.3,1605.487Z" transform="translate(-878.462 -1336.284)"/><path class="j" d="M1235.753,1600.87c-6.386-6.415-12.787-12.822-19-19.281-1.557,1.318-3.088,2.747-4.612,4.177,6.4,6.408,12.846,13.048,19.185,19.234C1232.673,1603.61,1234.2,1602.188,1235.753,1600.87Z" transform="translate(-878.462 -1336.284)"/><path class="j" d="M1235.634,1593.779c3.045-.685,6.1-1.367,9.32-2.087q-.742-2.9-1.494-5.82c-3.227.723-6.275,1.4-9.324,2.086C1234.637,1589.9,1235.14,1591.838,1235.634,1593.779Z" transform="translate(-878.462 -1336.284)"/><path class="j" d="M1257.508,1593.349a7.122,7.122,0,0,0,5.532-8.72,7.7,7.7,0,0,0-9.193-5.544,7.141,7.141,0,0,0-5.5,8.83A7.68,7.68,0,0,0,1257.508,1593.349Z" transform="translate(-878.462 -1336.284)"/><path class="a" d="M1286.42,1591.587c1.157-4.356,2.5-8.763,3.866-13.053q2.014-6.6,4.031-13.207c-4.665,1.044-9.328,2.084-13.81,3.09-4.663,1.04-9.327,2.086-13.813,3.088,3.15,3.4,6.47,6.762,9.79,10.116C1279.784,1584.869,1283.1,1588.233,1286.42,1591.587Z" transform="translate(-878.462 -1336.284)"/><path class="j" d="M1328.929,1580.03q-9.543-9.634-19.09-19.263c-1.384,1.277-2.914,2.706-4.269,4.1,6.189,6.457,12.605,13.108,18.909,19.3C1325.832,1582.77,1327.368,1581.345,1328.929,1580.03Z" transform="translate(-878.462 -1336.284)"/><path class="j" d="M1348.1,1575.743q-9.524-9.642-19.068-19.268c-1.562,1.317-3.1,2.747-4.452,4.136,6.185,6.456,12.594,13.107,18.9,19.3C1345,1578.481,1346.536,1577.056,1348.1,1575.743Z" transform="translate(-878.462 -1336.284)"/><path class="j" d="M1357.152,1566.6c8.781-1.966,17.744-3.97,26.706-5.976q-.735-2.907-1.462-5.826c-8.963,2.007-17.923,4.01-26.712,5.977C1356.179,1562.715,1356.661,1564.655,1357.152,1566.6Z" transform="translate(-878.462 -1336.284)"/><path class="j" d="M1394.51,1564.634c1.976-.442,3.942-.883,6.093-1.363-.512-2.059-1-4-1.481-5.94l-6.093,1.363C1393.515,1560.634,1394,1562.576,1394.51,1564.634Z" transform="translate(-878.462 -1336.284)"/><path class="j" d="M1391.515,1552.636c1.968-.442,3.94-.883,6.094-1.363q-.73-2.922-1.46-5.829c-2.149.481-4.121.922-6.088,1.364Q1390.784,1549.718,1391.515,1552.636Z" transform="translate(-878.462 -1336.284)"/><path class="j" d="M1427.832,1557.9c-6.33-6.429-12.661-12.855-18.811-19.324-1.566,1.318-3.1,2.751-4.642,4.18,6.157,6.465,12.542,13.116,18.817,19.319C1424.724,1560.649,1426.263,1559.222,1427.832,1557.9Z" transform="translate(-878.462 -1336.284)"/><path class="j" d="M1446.824,1553.655c-6.319-6.432-12.641-12.857-18.789-19.33-1.566,1.321-3.105,2.75-4.822,4.222,6.5,6.386,12.885,13.042,19.144,19.242C1443.718,1556.4,1445.254,1554.976,1446.824,1553.655Z" transform="translate(-878.462 -1336.284)"/><path class="b" d="M1460.382,1552.673c1.367-4.4,2.742-8.816,4.144-13.117,1.188-4.364,2.563-8.775,3.935-13.187-4.66,1.045-9.323,2.086-13.809,3.092-4.663,1.04-9.324,2.085-13.809,3.087q4.938,5.055,9.873,10.1C1453.806,1545.939,1457.093,1549.31,1460.382,1552.673Z" transform="translate(-878.462 -1336.284)"/><path class="b" d="M1495.855,1544.735c1.375-4.4,2.754-8.818,4.158-13.114,1.2-4.369,2.58-8.784,3.96-13.194-4.663,1.041-9.328,2.085-13.805,3.087-4.664,1.046-9.327,2.086-13.814,3.092q4.927,5.055,9.859,10.1C1489.286,1538,1492.57,1541.373,1495.855,1544.735Z" transform="translate(-878.462 -1336.284)"/><path class="j" d="M1524.684,1533.584a7.289,7.289,0,0,0,5.62-8.74,7.7,7.7,0,0,0-9.1-5.568,7.255,7.255,0,0,0-5.6,8.855A7.634,7.634,0,0,0,1524.684,1533.584Z" transform="translate(-878.462 -1336.284)"/><path class="j" d="M1369.254,1592.622l19.2-3.259,1.72,10.105-19.2,3.26-1.72-10.106ZM1343.49,1597l19.2-3.26,1.715,10.1-19.2,3.264L1343.49,1597Zm4.119,24.252,1.718,10.1,71.232-12.1-1.715-10.1-71.235,12.1Z" transform="translate(-878.462 -1336.284)"/><path class="n" d="M1523.727,2542.847h11.484a6.365,6.365,0,0,0,6.288-6.026v-.082a5.785,5.785,0,0,0-5.87-5.946h-11.5a6.285,6.285,0,0,0-6.279,5.946s-.005,0-.005.082A5.866,5.866,0,0,0,1523.727,2542.847Z" transform="translate(-878.462 -1336.284)"/><path class="n" d="M1523.727,2517.312h11.484a6.365,6.365,0,0,0,6.288-6.026v-.082a5.785,5.785,0,0,0-5.87-5.946h-11.5a6.285,6.285,0,0,0-6.279,5.946s-.005,0-.005.082A5.866,5.866,0,0,0,1523.727,2517.312Z" transform="translate(-878.462 -1336.284)"/><rect class="u" x="1117.16" y="1758.262" width="17.963" height="17.98" transform="translate(-1608.632 -541.392) rotate(-29.847)"/><rect class="u" x="1135.333" y="1789.942" width="17.961" height="17.983" transform="translate(-1621.868 -528.375) rotate(-29.84)"/><path class="j" d="M1138.7,1646.085l0,0a10.529,10.529,0,0,1,0,14.851l-13.93,13.929,13.93,13.93a10.53,10.53,0,0,1,0,14.852l0,0a10.53,10.53,0,0,1-14.852,0l-13.93-13.93-13.929,13.93a10.529,10.529,0,0,1-14.851,0l0,0a10.528,10.528,0,0,1,0-14.852l13.929-13.93-13.929-13.929a10.527,10.527,0,0,1,0-14.851l0,0a10.529,10.529,0,0,1,14.851,0l13.929,13.93,13.93-13.93A10.53,10.53,0,0,1,1138.7,1646.085Z" transform="translate(-878.462 -1336.284)"/><path class="a" d="M1100.307,1639.605a17.643,17.643,0,0,1,6.085,8.029,9.872,9.872,0,0,1-.608,8.724l-8.274,12.768,17.725,13.107a17.65,17.65,0,0,1,6.194,8.116,10.055,10.055,0,0,1-.368,8.317,3.618,3.618,0,0,1-.514.8,8.743,8.743,0,0,1-7.071,3.342,15.638,15.638,0,0,1-8.653-2.685c-4.606-2.3-13.861-10.21-18.54-13.669-2.161,3.338-6.112,10.381-8.447,13.012a8.739,8.739,0,0,1-7.069,3.342,15.644,15.644,0,0,1-8.655-2.685,8.122,8.122,0,0,1-1.076-.754,17.652,17.652,0,0,1-6.09-8.034,9.875,9.875,0,0,1,.613-8.72l8.274-12.767-17.727-13.109a17.713,17.713,0,0,1-6.19-8.119,10,10,0,0,1,.361-8.308,3,3,0,0,1,.515-.8,8.73,8.73,0,0,1,7.069-3.343,15.7,15.7,0,0,1,8.663,2.688c4.6,2.3,13.855,10.207,18.53,13.667,2.161-3.34,6.113-10.382,8.449-13.012a8.729,8.729,0,0,1,7.069-3.343,15.694,15.694,0,0,1,8.661,2.688,8.376,8.376,0,0,1,1.074.752Zm3.3,9.013a14.727,14.727,0,0,0-5.132-6.709l-.888-.611a12.664,12.664,0,0,0-6.964-2.189,5.885,5.885,0,0,0-4.733,2.111c-3.433,5.086-6.721,10.365-10.076,15.521-6.883-5.1-13.914-10.621-20.936-15.443a12.669,12.669,0,0,0-6.965-2.189,5.889,5.889,0,0,0-4.734,2.111l-.217.321a6.987,6.987,0,0,0-.271,6.093,14.663,14.663,0,0,0,5.163,6.74l19.942,14.748-9.777,15.094a7.012,7.012,0,0,0-.3,6.133,14.77,14.77,0,0,0,5.141,6.713l.891.616a12.667,12.667,0,0,0,6.957,2.185,5.9,5.9,0,0,0,4.734-2.111c3.427-5.083,6.735-10.367,10.071-15.527,6.887,5.105,13.922,10.614,20.949,15.453a12.667,12.667,0,0,0,6.957,2.185,5.9,5.9,0,0,0,4.733-2.111l.216-.323a6.994,6.994,0,0,0,.279-6.1,14.75,14.75,0,0,0-5.167-6.737l-19.946-14.75,9.782-15.092A7,7,0,0,0,1103.61,1648.618Z" transform="translate(-878.462 -1336.284)"/><path class="j" d="M2603.311,1470.942a17.653,17.653,0,0,0-6.086,8.03,9.871,9.871,0,0,0,.608,8.724l8.275,12.767-17.727,13.108a17.671,17.671,0,0,0-6.193,8.116,10.056,10.056,0,0,0,.368,8.316,3.557,3.557,0,0,0,.515.8,8.738,8.738,0,0,0,7.069,3.342,15.648,15.648,0,0,0,8.654-2.684c4.605-2.305,13.859-10.21,18.54-13.67,2.16,3.339,6.112,10.381,8.448,13.012a8.735,8.735,0,0,0,7.069,3.342,15.647,15.647,0,0,0,8.653-2.684,8.311,8.311,0,0,0,1.078-.755,17.647,17.647,0,0,0,6.088-8.034,9.885,9.885,0,0,0-.611-8.72l-8.275-12.767,17.725-13.108a17.7,17.7,0,0,0,6.191-8.12,10,10,0,0,0-.359-8.309,3.057,3.057,0,0,0-.516-.8,8.737,8.737,0,0,0-7.07-3.342,15.686,15.686,0,0,0-8.661,2.688c-4.6,2.3-13.855,10.206-18.531,13.666-2.162-3.339-6.113-10.381-8.449-13.012a8.734,8.734,0,0,0-7.069-3.342,15.689,15.689,0,0,0-8.662,2.688,8.45,8.45,0,0,0-1.072.751Zm-3.305,9.014a14.729,14.729,0,0,1,5.133-6.708l.887-.612a12.669,12.669,0,0,1,6.965-2.19,5.9,5.9,0,0,1,4.734,2.112c3.431,5.086,6.72,10.366,10.075,15.522,6.883-5.1,13.914-10.622,20.936-15.444a12.674,12.674,0,0,1,6.966-2.19,5.9,5.9,0,0,1,4.733,2.112l.216.321a6.98,6.98,0,0,1,.272,6.093,14.671,14.671,0,0,1-5.164,6.741l-19.942,14.746,9.778,15.1a7.013,7.013,0,0,1,.3,6.132,14.749,14.749,0,0,1-5.14,6.712l-.891.616a12.663,12.663,0,0,1-6.957,2.186,5.892,5.892,0,0,1-4.733-2.112c-3.429-5.082-6.737-10.366-10.072-15.525-6.887,5.105-13.922,10.614-20.948,15.451a12.666,12.666,0,0,1-6.958,2.186,5.893,5.893,0,0,1-4.733-2.112l-.217-.321a7,7,0,0,1-.279-6.1,14.753,14.753,0,0,1,5.168-6.737l19.944-14.75-9.78-15.092A7.007,7.007,0,0,1,2600.006,1479.956Z" transform="translate(-878.462 -1336.284)"/><rect class="c" x="912.887" y="170.205" width="48.428" height="14.53"/><rect class="u" x="912.887" y="199.268" width="96.856" height="14.53"/><rect class="u" x="1044.072" y="199.268" width="29.895" height="14.53"/><path class="j" d="M2088.937,1497.989l0,0a8.318,8.318,0,0,1,3.41,11.231l-7.333,13.735,13.731,7.332a8.329,8.329,0,0,1,3.414,11.235l-.005,0a8.316,8.316,0,0,1-11.229,3.409l-13.736-7.333-7.332,13.732a8.325,8.325,0,0,1-11.234,3.412l-.005,0a8.318,8.318,0,0,1-3.408-11.23l7.333-13.737-13.732-7.332a8.325,8.325,0,0,1-3.412-11.233l0,0a8.315,8.315,0,0,1,11.229-3.41l13.736,7.333,7.333-13.731A8.324,8.324,0,0,1,2088.937,1497.989Z" transform="translate(-878.462 -1336.284)"/><rect class="v" x="1880.323" y="1456.474" width="21.052" height="21.029" transform="translate(-1201.838 1038.766) rotate(-60.104)"/><rect class="v" x="1859.011" y="1493.548" width="21.052" height="21.027" transform="translate(-1244.551 1039.181) rotate(-60.112)"/><path class="p" d="M1951.748,1420.421h0a4.64,4.64,0,0,1-3.919,5.249l-8.6,1.248,1.248,8.6a4.648,4.648,0,0,1-3.921,5.249h0a4.649,4.649,0,0,1-5.249-3.92l-1.243-8.6-8.6,1.248a4.645,4.645,0,0,1-5.249-3.921l0,0a4.646,4.646,0,0,1,3.923-5.249l8.6-1.247-1.247-8.6a4.648,4.648,0,0,1,3.92-5.249h0a4.648,4.648,0,0,1,5.249,3.919l1.244,8.6,8.6-1.244A4.645,4.645,0,0,1,1951.748,1420.421Z" transform="translate(-878.462 -1336.284)"/><path class="i" d="M2942.694,2322.436l-.739,84.367a7.66,7.66,0,0,1-7.7,7.58,7.687,7.687,0,0,1-3.792-1.068l-72.688-42.8a7.56,7.56,0,0,1-2.789-2.8,7.61,7.61,0,0,1,2.9-10.42l73.417-41.571a7.643,7.643,0,0,1,3.819-1.007,7.535,7.535,0,0,1,3.824,1.069,7.494,7.494,0,0,1,3.752,6.647Zm-5.836,84.325.739-84.364a2.58,2.58,0,0,0-2.5-2.58,2.634,2.634,0,0,0-1.283.353l-73.417,41.571a2.557,2.557,0,0,0-.948.9,2.484,2.484,0,0,0-.34,1.267,2.6,2.6,0,0,0,.317,1.275,2.507,2.507,0,0,0,.937.937l72.677,42.791a2.584,2.584,0,0,0,1.274.376,2.624,2.624,0,0,0,1.252-.348,2.586,2.586,0,0,0,.952-.91A2.509,2.509,0,0,0,2936.858,2406.761Z" transform="translate(-878.462 -1336.284)"/><path class="n" d="M2681.091,2404.173h10.122a5.612,5.612,0,0,0,5.543-5.315v-.074a5.1,5.1,0,0,0-5.171-5.24H2681.45a5.54,5.54,0,0,0-5.534,5.24s0,0,0,.074A5.17,5.17,0,0,0,2681.091,2404.173Z" transform="translate(-878.462 -1336.284)"/><path class="b" d="M1322.82,2003.062h0c-153.222,0-269.25,125.361-257.848,278.567l17.482,235.063a286.211,286.211,0,0,0,11.52,61.665h543.274a271.949,271.949,0,0,0,2.351-61.665l-17.487-235.063C1610.719,2128.423,1476.043,2003.062,1322.82,2003.062Z" transform="translate(-878.462 -1336.284)"/><path class="s" d="M1369.1,1826.041a80,80,0,0,1-6.2,90.719,64.73,64.73,0,1,1-82.484,69.435,41.855,41.855,0,0,1-29.793-56.623,79.975,79.975,0,0,1-7.92-118.1,79.991,79.991,0,1,1,126.4,14.567Z" transform="translate(-878.462 -1336.284)"/><path class="o" d="M1223.418,2561.862H2943.024a85.054,85.054,0,0,1,84.813,84.8h0a85.058,85.058,0,0,1-84.813,84.811H1223.418a85.058,85.058,0,0,1-84.811-84.811h0A85.054,85.054,0,0,1,1223.418,2561.862Z" transform="translate(-878.462 -1336.284)"/><path class="w" d="M1223.414,2561.862h567.455a85.053,85.053,0,0,1,84.807,84.8h0a85.057,85.057,0,0,1-84.807,84.811H1223.414a85.058,85.058,0,0,1-84.807-84.811h0A85.054,85.054,0,0,1,1223.414,2561.862Z" transform="translate(-878.462 -1336.284)"/><path class="p" d="M1326.978,2051.176h0c-131.717,0-231.455,107.764-221.657,239.468l15.029,202.063a246.182,246.182,0,0,0,9.9,53.011H1597.27a233.873,233.873,0,0,0,2.02-53.011l-15.033-202.063C1574.465,2158.94,1458.69,2051.176,1326.978,2051.176Z" transform="translate(-878.462 -1336.284)"/><path class="o" d="M1382.782,2051.176h0c-131.717,0-226.526,107.764-210.7,239.468l24.269,202.063a252.8,252.8,0,0,0,12.33,53.011H1675.7a233.7,233.7,0,0,0-.4-53.011l-24.276-202.063C1635.2,2158.94,1514.5,2051.176,1382.782,2051.176Z" transform="translate(-878.462 -1336.284)"/><path class="x" d="M1496.435,2321.513a91.922,91.922,0,0,1,138-121.47c.31.352,105.16,121.927,360.808,178.19a91.991,91.991,0,0,1-39.53,179.685C1640.848,2488.621,1496.861,2321.994,1496.435,2321.513Z" transform="translate(-878.462 -1336.284)"/><path class="y" d="M1289.107,2261.017h26.275a177.984,177.984,0,0,1,62.7-60.922l0,0c85.535-49.387,195.915-19.8,245.294,65.724l129.285,223.942a178.527,178.527,0,0,1,21.506,118.631H1406.466l-94.11-163a178.249,178.249,0,0,1-23.249-104.664Z" transform="translate(-878.462 -1336.284)"/><circle class="z" cx="1359.956" cy="1968.676" r="64.724" transform="translate(-1708.839 1595.517) rotate(-79.099)"/><path class="aa" d="M1363.521,1933.2h178.862v292.985a37.972,37.972,0,0,1-37.859,37.863h-51.577c-49.185,0-89.426-40.25-89.426-89.427Z" transform="translate(-878.462 -1336.284)"/><path class="ab" d="M570.75,789.867h.006a34.48,34.48,0,0,1,34.48,34.48v31.447a34.481,34.481,0,0,1-34.481,34.481h0a34.48,34.48,0,0,1-34.48-34.48V824.347a34.48,34.48,0,0,1,34.48-34.48Z"/><path class="aa" d="M1506.867,1933.2h35.511v296.241a34.7,34.7,0,0,1-34.6,34.6h-35.512a34.7,34.7,0,0,0,34.6-34.6v-89.909c0-18.385-14.1-21.107-16.894-21.19v-.012c-55.318-2.411-99.818-48.386-99.818-104.27v-79.934h106.836v159.73h9.876Z" transform="translate(-878.462 -1336.284)"/><path class="o" d="M1304.6,1976.935a41.825,41.825,0,1,0-41.823-41.823A41.9,41.9,0,0,0,1304.6,1976.935Z" transform="translate(-878.462 -1336.284)"/><path class="o" d="M1624.819,1861.184a81.561,81.561,0,1,0-81.559-81.558A81.717,81.717,0,0,0,1624.819,1861.184Z" transform="translate(-878.462 -1336.284)"/><path class="ac" d="M1438.093,1736.282a44.882,44.882,0,1,0-44.886-44.881A44.97,44.97,0,0,0,1438.093,1736.282Z" transform="translate(-878.462 -1336.284)"/><path class="ad" d="M1447.371,1725.271h107.645c57.414,0,104.374,46.969,104.374,104.374v182.664a81.778,81.778,0,0,1-81.543,81.543H1452.536a73.874,73.874,0,0,1-73.662-73.659V1793.769A68.7,68.7,0,0,1,1447.371,1725.271Z" transform="translate(-878.462 -1336.284)"/><path class="ae" d="M1378.874,2017.039V1822.211a36.9,36.9,0,0,1,12.894-2.316h58.517a56.9,56.9,0,0,1,56.74,56.742v99.3a44.454,44.454,0,0,1-44.328,44.327h-68.122A39.673,39.673,0,0,1,1378.874,2017.039Z" transform="translate(-878.462 -1336.284)"/><path class="aa" d="M1488.42,1725.276h68.115c57.409,0,104.373,47.067,104.373,104.6v183.054c0,44.945-36.694,81.713-81.543,81.713H1511.25c44.845,0,81.543-36.768,81.543-81.713V1829.875C1592.793,1772.343,1545.825,1725.276,1488.42,1725.276Z" transform="translate(-878.462 -1336.284)"/><path class="ac" d="M1400.072,1894.586a101.959,101.959,0,1,0-101.959-101.958A102.153,102.153,0,0,0,1400.072,1894.586Z" transform="translate(-878.462 -1336.284)"/><path class="o" d="M1484.868,1849.25a101.967,101.967,0,0,1-163.59,8.089,91.843,91.843,0,0,1,163.59-8.089Z" transform="translate(-878.462 -1336.284)"/><path class="ac" d="M1521.355,1789.517a81.559,81.559,0,1,0-81.563-81.558A81.716,81.716,0,0,0,1521.355,1789.517Z" transform="translate(-878.462 -1336.284)"/><path class="ac" d="M1322.461,1939.8a79.985,79.985,0,1,0-79.986-79.982A80.133,80.133,0,0,0,1322.461,1939.8Z" transform="translate(-878.462 -1336.284)"/><path class="ac" d="M1333.577,1843.473a79.985,79.985,0,1,0-79.986-79.983A80.137,80.137,0,0,0,1333.577,1843.473Z" transform="translate(-878.462 -1336.284)"/><path class="ac" d="M1383.133,1735.662a44.884,44.884,0,1,0-44.881-44.882A44.97,44.97,0,0,0,1383.133,1735.662Z" transform="translate(-878.462 -1336.284)"/><path class="o" d="M1426.224,1647.606h53.767A68.18,68.18,0,0,0,1412,1715.589v113.566h-53.761V1715.589A68.179,68.179,0,0,1,1426.224,1647.606Z" transform="translate(-878.462 -1336.284)"/><path class="ac" d="M1613.774,1763.15a86.22,86.22,0,1,0-86.222-86.218A86.38,86.38,0,0,0,1613.774,1763.15Z" transform="translate(-878.462 -1336.284)"/><path class="j" d="M1416.034,1644.831H1469.8a68.177,68.177,0,0,0-67.984,67.985v113.565h-53.767V1712.816A68.18,68.18,0,0,1,1416.034,1644.831Z" transform="translate(-878.462 -1336.284)"/><path class="ac" d="M1469.518,1713.507a44.882,44.882,0,1,0-44.881-44.881A44.97,44.97,0,0,0,1469.518,1713.507Z" transform="translate(-878.462 -1336.284)"/><path class="o" d="M1685.436,1629a86.248,86.248,0,0,1-99.977,129.4,81.587,81.587,0,0,1-139.965-20.423,81.579,81.579,0,0,0,131.629,4.675A86.256,86.256,0,0,0,1685.436,1629Z" transform="translate(-878.462 -1336.284)"/><path class="t" d="M1578.626,1608.272c27.3-14.309,56.214-12.958,64.585,3.012s-6.967,40.515-34.267,54.824-56.215,12.963-64.586-3.011S1551.326,1622.582,1578.626,1608.272Z" transform="translate(-878.462 -1336.284)"/><path class="t" d="M1489.111,1650.352c17.965-9.418,36.989-8.528,42.5,1.98s-4.584,26.66-22.55,36.077-36.989,8.528-42.5-1.984S1471.151,1659.765,1489.111,1650.352Z" transform="translate(-878.462 -1336.284)"/><path class="y" d="M1311.841,2327.6a91.921,91.921,0,0,1,138-121.47c.308.353,105.16,121.929,360.807,178.192A91.99,91.99,0,0,1,1771.113,2564C1456.252,2494.708,1312.265,2328.08,1311.841,2327.6Z" transform="translate(-878.462 -1336.284)"/><path class="s" d="M1317.248,2203.121c1.865-1.96,3.834-3.865,5.908-5.691a91.927,91.927,0,0,1,129.733,8.265c.308.351,105.16,121.927,360.807,178.19a89.265,89.265,0,0,1,42.735,153.582,92.026,92.026,0,0,0-55.983-142.066c-255.647-56.259-360.5-177.839-360.806-178.187A91.933,91.933,0,0,0,1317.248,2203.121Z" transform="translate(-878.462 -1336.284)"/><path class="x" d="M1311.841,2327.6a91.85,91.85,0,0,1-19.434-85.835,91.961,91.961,0,0,1,110.774,21.163c.31.351,105.159,121.927,360.808,178.19a91.99,91.99,0,0,1,70.075,109.606c-.4,1.817-.859,3.607-1.357,5.374a91.629,91.629,0,0,1-61.594,7.907C1456.252,2494.708,1312.265,2328.08,1311.841,2327.6Z" transform="translate(-878.462 -1336.284)"/><path class="x" d="M1806.14,2588.447c61.447,0,111.565-50.122,111.565-111.57s-50.118-111.566-111.565-111.566-111.571,50.118-111.571,111.566S1744.691,2588.447,1806.14,2588.447Z" transform="translate(-878.462 -1336.284)"/><path class="af" d="M1875.665,2389.63a111.578,111.578,0,0,1,18.281,156.088h-58.63a78.269,78.269,0,0,1-78.045-78.046h0a78.268,78.268,0,0,1,78.045-78.042Z" transform="translate(-878.462 -1336.284)"/><path class="aa" d="M1852.559,2389.63h327.764a78.266,78.266,0,0,1,78.042,78.042h0a78.267,78.267,0,0,1-78.042,78.046H1852.559a78.269,78.269,0,0,1-78.043-78.046h0A78.269,78.269,0,0,1,1852.559,2389.63Z" transform="translate(-878.462 -1336.284)"/><path class="ad" d="M1852.559,2389.63h327.764a77.55,77.55,0,0,1,48.494,17.013,78.343,78.343,0,0,1-73.849,52.861H1827.2a77.535,77.535,0,0,1-48.489-17.01A78.336,78.336,0,0,1,1852.559,2389.63Z" transform="translate(-878.462 -1336.284)"/><path class="a" d="M1538.372,1902.506a22.358,22.358,0,0,1-43.969,0Z" transform="translate(-878.462 -1336.284)"/><path class="a" d="M1650.427,1902.506c-1.577,10.4-9.1,18.289-18.139,18.289s-16.567-7.884-18.143-18.289Z" transform="translate(-878.462 -1336.284)"/><path class="a" d="M1484.986,1882.158h56.8a11.186,11.186,0,0,1,11.16,11.151v0a11.188,11.188,0,0,1-11.16,11.156h-56.8a11.187,11.187,0,0,1-11.153-11.156v0A11.185,11.185,0,0,1,1484.986,1882.158Z" transform="translate(-878.462 -1336.284)"/><path class="ad" d="M2234.432,2343.551a141.913,141.913,0,0,1,141.9,141.9,20.9,20.9,0,0,1-20.851,20.854l-242.1,0a20.9,20.9,0,0,1-20.853-20.854A141.912,141.912,0,0,1,2234.432,2343.551Z" transform="translate(-878.462 -1336.284)"/><path class="aa" d="M2171.405,2506.31h-60.054a20.893,20.893,0,0,1-20.849-20.854,141.561,141.561,0,0,1,8.827-49.355C2099.3,2436.958,2097.393,2506.258,2171.405,2506.31Z" transform="translate(-878.462 -1336.284)"/><path class="a" d="M1620.479,1882.158h37.054a11.186,11.186,0,0,1,11.156,11.151v0a11.187,11.187,0,0,1-11.156,11.156h-37.054a11.187,11.187,0,0,1-11.155-11.156v0A11.185,11.185,0,0,1,1620.479,1882.158Z" transform="translate(-878.462 -1336.284)"/><path class="a" d="M1572.274,2010.546h20.713a8.4,8.4,0,0,1,8.382,8.386v0a8.4,8.4,0,0,1-8.382,8.386h-20.713a8.41,8.41,0,0,1-8.39-8.386v0A8.41,8.41,0,0,1,1572.274,2010.546Z" transform="translate(-878.462 -1336.284)"/><path class="aa" d="M1542.378,2094.642h36.847a45.441,45.441,0,0,0-36.661,40.381h-.186Z" transform="translate(-878.462 -1336.284)"/><path class="x" d="M1389.108,2434.955h118.9a24.192,24.192,0,0,1,24.118,24.119h0a24.192,24.192,0,0,1-24.118,24.121h-118.9a24.2,24.2,0,0,1-24.121-24.121h0A24.2,24.2,0,0,1,1389.108,2434.955Z" transform="translate(-878.462 -1336.284)"/><path class="ag" d="M1447.114,2350.836a87.806,87.806,0,0,1,85.714,68.83,18.17,18.17,0,0,1-17.749,22.074H1379.146a18.174,18.174,0,0,1-17.747-22.074A87.811,87.811,0,0,1,1447.114,2350.836Z" transform="translate(-878.462 -1336.284)"/><path class="s" d="M1456.469,2441.751h-77.584a18.2,18.2,0,0,1-17.49-22.094,87.83,87.83,0,0,1,56.282-63.755,87.829,87.829,0,0,1,56.287,63.755,18.205,18.205,0,0,1-17.495,22.094Z" transform="translate(-878.462 -1336.284)"/><path class="ag" d="M1497.307,2551.773a87.576,87.576,0,0,0,35.521-53.05,18.173,18.173,0,0,0-17.749-22.083H1379.146a18.177,18.177,0,0,0-17.747,22.083,87.582,87.582,0,0,0,35.522,53.05Z" transform="translate(-878.462 -1336.284)"/><path class="ag" d="M1404.537,2378.063a6.981,6.981,0,1,1-6.979,6.979A6.974,6.974,0,0,1,1404.537,2378.063Z" transform="translate(-878.462 -1336.284)"/><path class="ag" d="M1404.537,2405.387a6.981,6.981,0,1,1-6.979,6.983A6.973,6.973,0,0,1,1404.537,2405.387Z" transform="translate(-878.462 -1336.284)"/><path class="ag" d="M1430.114,2392.3a6.983,6.983,0,1,1-6.979,6.986A6.974,6.974,0,0,1,1430.114,2392.3Z" transform="translate(-878.462 -1336.284)"/><path class="q" d="M1368.615,2434.979a40.835,40.835,0,1,1-40.832,40.834A40.839,40.839,0,0,1,1368.615,2434.979Z" transform="translate(-878.462 -1336.284)"/><path class="q" d="M1414,2472.087a25.482,25.482,0,1,1-25.478,25.477A25.48,25.48,0,0,1,1414,2472.087Z" transform="translate(-878.462 -1336.284)"/><path class="k" d="M1338.157,2475.188a25.482,25.482,0,1,1-25.482,25.482A25.478,25.478,0,0,1,1338.157,2475.188Z" transform="translate(-878.462 -1336.284)"/><path class="ah" d="M1306.151,2503.733H1602.3a24.094,24.094,0,0,1,24.028,24.016h0a24.093,24.093,0,0,1-24.028,24.024h-296.15a24.093,24.093,0,0,1-24.016-24.024h0A24.094,24.094,0,0,1,1306.151,2503.733Z" transform="translate(-878.462 -1336.284)"/><path class="b" d="M1306.151,2503.733h136.368a24.1,24.1,0,0,1,24.031,24.016h0a24.1,24.1,0,0,1-24.031,24.024H1306.151a24.093,24.093,0,0,1-24.016-24.024h0A24.094,24.094,0,0,1,1306.151,2503.733Z" transform="translate(-878.462 -1336.284)"/><path class="aa" d="M1522.081,2122.072l20.3,12.951,5.822-35.013,31.025-5.368.166-14.029s-20.668.123-21.426.758-33.722,19.649-33.722,19.649Z" transform="translate(-878.462 -1336.284)"/><path class="q" d="M2261.029,2506.306v0h81.1a7.938,7.938,0,0,1,7.92,7.92c0,23.715-21.628,39.432-43.743,41.151,1.307.107,2.623.161,3.959.161h567.289a49.384,49.384,0,0,0,49.237-49.236Z" transform="translate(-878.462 -1336.284)"/><path class="b" d="M2348.109,2526.121c-4.672,13.7-17.192,23.422-31.4,27.407v2.014h560.847a49.4,49.4,0,0,0,45.039-29.421Z" transform="translate(-878.462 -1336.284)"/><path class="aa" d="M2234.432,2343.156a141.756,141.756,0,0,0-40.13,5.767,141.962,141.962,0,0,1,101.768,136.134,20.9,20.9,0,0,1-20.763,20.858h80.172a20.9,20.9,0,0,0,20.854-20.858A141.908,141.908,0,0,0,2234.432,2343.156Z" transform="translate(-878.462 -1336.284)"/><path class="b" d="M2393.772,2555.542H2417.5a49.384,49.384,0,0,0,49.237-49.236h-23.731A49.384,49.384,0,0,1,2393.772,2555.542Z" transform="translate(-878.462 -1336.284)"/><path class="b" d="M2800.713,2555.542h23.732a49.387,49.387,0,0,0,49.241-49.236h-23.731A49.388,49.388,0,0,1,2800.713,2555.542Z" transform="translate(-878.462 -1336.284)"/><path class="s" d="M1805.741,2365.315q4.35,0,8.614.332a111.561,111.561,0,0,0-79.18,180.071h-17.241a111.575,111.575,0,0,1,87.807-180.4Z" transform="translate(-878.462 -1336.284)"/><path class="j" d="M1962.669,2506.31h406.847a7.936,7.936,0,0,1,7.92,7.92c0,25.146-24.328,41.312-47.764,41.312H2002.516c-23.438,0-47.77-16.166-47.77-41.312A7.937,7.937,0,0,1,1962.669,2506.31Z" transform="translate(-878.462 -1336.284)"/><path class="b" d="M2163.176,2537.285a11.154,11.154,0,1,0-11.155-11.156A11.176,11.176,0,0,0,2163.176,2537.285Z" transform="translate(-878.462 -1336.284)"/><path class="b" d="M2072.892,2519.031h25.872a6.6,6.6,0,0,1,6.584,6.588v.012a6.6,6.6,0,0,1-6.584,6.583h-25.872a6.6,6.6,0,0,1-6.589-6.583v-.012A6.607,6.607,0,0,1,2072.892,2519.031Z" transform="translate(-878.462 -1336.284)"/><path class="c" d="M1144.987,1182.747h25.87a6.587,6.587,0,0,1,6.587,6.587v.008a6.587,6.587,0,0,1-6.587,6.587h-25.869a6.588,6.588,0,0,1-6.588-6.588v-.008a6.587,6.587,0,0,1,6.587-6.587Z"/><path class="b" d="M1069.935,2545.718h2000.4a43.74,43.74,0,0,1,43.613,43.612h0a43.738,43.738,0,0,1-43.613,43.615h-2000.4a43.739,43.739,0,0,1-43.613-43.615h0A43.741,43.741,0,0,1,1069.935,2545.718Z" transform="translate(-878.462 -1336.284)"/><path class="ah" d="M1069.935,2545.718h716.042a43.74,43.74,0,0,1,43.613,43.612h0a43.738,43.738,0,0,1-43.613,43.615H1069.935a43.739,43.739,0,0,1-43.613-43.615h0A43.741,43.741,0,0,1,1069.935,2545.718Z" transform="translate(-878.462 -1336.284)"/><path class="j" d="M1382.308,2004.642c0-7.572,11.5-7.572,11.5,0l-.2,148.066c-8.022,34.5-34.333,11.733-69.676,60.029-36.38,49.71-11.167,102.385-11.167,107.174l-.071,173.808c-.377,4.853-2.388,46.249,40.356,46.249l476.325.815c34.583-.332,66.284-.633,66.794,52.946.653,68.455,15.895,106.39,114.929,102.975l169.125-3.011c54.121,3.623,67.454-46.811,67.122-102.967-.19-31.369-.347-56.184,30.363-70.011,6.895-3.1,11.611,7.366,4.718,10.472-38.867,17.507-14.275,63.906-29.286,118.992-15.833,58.073-69.425,55.262-73.728,54.939-8.369-.02-51.643-.965-167.955,3.042-106.079,3.655-126.029-39.7-126.74-114.336-.442-46.292-32.395-41.593-64.634-41.541l-467.033-.814c-55.018,0-52.229-52.959-51.77-58.73V2320.824a162.573,162.573,0,0,1-5.82-21.25c-13.9-69.639,34.436-124.925,71.188-133.22,12.1-2.415,15.1-13.006,15.658-15.595Z" transform="translate(-878.462 -1336.284)"/><path class="o" d="M1375.127,1973.715h26.309v31.492a13.188,13.188,0,0,1-13.153,13.152h0a13.187,13.187,0,0,1-13.152-13.152Z" transform="translate(-878.462 -1336.284)"/><path class="ac" d="M1375.127,1973.715H1392.3v31.492a9.157,9.157,0,1,1-17.175,0Z" transform="translate(-878.462 -1336.284)"/><path class="j" d="M1377.19,1986.6c45.11,0,81.9-41.243,81.9-91.815s-36.789-91.818-81.9-91.818-81.9,41.247-81.9,91.818S1332.08,1986.6,1377.19,1986.6Z" transform="translate(-878.462 -1336.284)"/><path class="b" d="M1361,1946.854c24.4,0,44.3-23.387,44.3-52.067s-19.9-52.069-44.3-52.069-44.3,23.39-44.3,52.069S1336.6,1946.854,1361,1946.854Z" transform="translate(-878.462 -1336.284)"/><path class="ai" d="M1361.114,1842.726a38.108,38.108,0,0,1,11.307,1.71c-18.986,5.881-32.987,26.2-32.987,50.355s14,44.479,32.987,50.355a38.045,38.045,0,0,1-11.307,1.712c-24.463,0-44.3-23.313-44.3-52.067S1336.651,1842.726,1361.114,1842.726Z" transform="translate(-878.462 -1336.284)"/><path class="o" d="M1383.122,2022.105h10.445a4.83,4.83,0,0,1,4.817,4.818h0a4.828,4.828,0,0,1-4.817,4.813h-10.445a4.828,4.828,0,0,1-4.818-4.813h0a4.831,4.831,0,0,1,4.818-4.818Zm0,15.468h10.445a4.832,4.832,0,0,1,4.817,4.818h0a4.831,4.831,0,0,1-4.817,4.817h-10.445a4.832,4.832,0,0,1-4.818-4.817h0A4.833,4.833,0,0,1,1383.122,2037.573Z" transform="translate(-878.462 -1336.284)"/><path class="x" d="M2281.709,2537.285a11.154,11.154,0,1,0-11.152-11.156A11.177,11.177,0,0,0,2281.709,2537.285Z" transform="translate(-878.462 -1336.284)"/><path class="o" d="M2285.167,2544.184h783.639a45.272,45.272,0,0,1,45.142,45.146h0a45.269,45.269,0,0,1-45.142,45.144H2285.167a45.269,45.269,0,0,0,45.142-45.144h0A45.272,45.272,0,0,0,2285.167,2544.184Z" transform="translate(-878.462 -1336.284)"/><path class="s" d="M1213.1,2210.156h105.164a14.132,14.132,0,0,1,14.092,14.088v14.089H1199.011v-14.089A14.129,14.129,0,0,1,1213.1,2210.156Z" transform="translate(-878.462 -1336.284)"/><path class="q" d="M1185.535,2234.919h153.046L1324.5,2535.337c-.265,5.71-5.473,10.381-12.16,10.381h-100.56c-6.682,0-11.891-4.671-12.156-10.381Z" transform="translate(-878.462 -1336.284)"/><path class="b" d="M1185.535,2234.919h105.4l-14.085,300.418c-.265,5.71-5.473,10.381-12.16,10.381h-52.915c-6.682,0-11.891-4.671-12.156-10.381Z" transform="translate(-878.462 -1336.284)"/><path class="k" d="M1198.782,2517.5l-11.151-237.9q2.665-.225,5.385-.224h0a64.485,64.485,0,0,1,64.3,64.3v109.791A64.511,64.511,0,0,1,1198.782,2517.5Z" transform="translate(-878.462 -1336.284)"/><path class="k" d="M1189.736,2225.758H1335.4a17.616,17.616,0,0,1,17.562,17.57h0a17.615,17.615,0,0,1-17.562,17.566H1189.736a17.617,17.617,0,0,1-17.566-17.566h0A17.618,17.618,0,0,1,1189.736,2225.758Z" transform="translate(-878.462 -1336.284)"/><path class="q" d="M1288.451,2225.758H1335.4a17.616,17.616,0,0,1,17.562,17.57h0a17.615,17.615,0,0,1-17.562,17.566h-46.948a17.614,17.614,0,0,0,17.561-17.566h0A17.615,17.615,0,0,0,1288.451,2225.758Z" transform="translate(-878.462 -1336.284)"/><path class="t" d="M1290.893,1704.655c17.965-9.418,36.989-8.528,42.5,1.979s-4.585,26.66-22.55,36.078-36.989,8.528-42.5-1.984S1272.931,1714.068,1290.893,1704.655Z" transform="translate(-878.462 -1336.284)"/><path class="s" d="M1346.9,1740.388h0a8.386,8.386,0,0,1,8.366,8.366v42.87a8.388,8.388,0,0,1-8.366,8.366h0a8.389,8.389,0,0,1-8.367-8.366v-42.87A8.387,8.387,0,0,1,1346.9,1740.388Z" transform="translate(-878.462 -1336.284)"/><path class="s" d="M1346.9,1711.4h0a8.386,8.386,0,0,1,8.366,8.366v2.611a8.387,8.387,0,0,1-8.366,8.367h0a8.388,8.388,0,0,1-8.367-8.367v-2.611A8.387,8.387,0,0,1,1346.9,1711.4Z" transform="translate(-878.462 -1336.284)"/><path class="j" d="M2963.887,2028.985H2436.148c-27.841,0-54.764,22.792-59.8,50.641l-64.8,357.9c-5.046,27.854,13.61,50.635,41.464,50.635h519.878c27.849,0,54.757-22.781,59.8-50.635l64.8-357.9a45.27,45.27,0,0,0-3.056-27.209c3.944-3.945,10.178-4.987,10.178-4.987C2997.881,2043.817,2984.9,2028.985,2963.887,2028.985Z" transform="translate(-878.462 -1336.284)"/><path class="o" d="M2981.8,2047.124H2454.063c-27.845,0-54.766,22.787-59.8,50.637l-64.8,357.905c-5.045,27.854,13.611,50.64,41.463,50.64H2890.8c27.845,0,54.758-22.786,59.8-50.64l64.8-357.905a45.323,45.323,0,0,0-3.055-27.209c3.944-3.944,10.176-4.987,10.176-4.987C3015.8,2061.952,3002.813,2047.124,2981.8,2047.124Z" transform="translate(-878.462 -1336.284)"/><path class="q" d="M3000.58,2059.822H2477.912c-27.082,0-53.363,22.154-58.406,49.241l-64.806,348c-5.047,27.085,12.982,49.24,40.069,49.24h522.667c27.083,0,53.362-22.155,58.4-49.24l64.808-348C3045.7,2081.976,3027.666,2059.822,3000.58,2059.822Z" transform="translate(-878.462 -1336.284)"/><path class="b" d="M2841.687,2059.826H2477.908c-27.078,0-53.359,22.15-58.4,49.233L2354.7,2457.07c-5.043,27.081,12.986,49.236,40.061,49.236h49.876c111.594-84.116,220.93-191.41,308.132-308.3C2788.569,2150.012,2818.193,2103.645,2841.687,2059.826Z" transform="translate(-878.462 -1336.284)"/><path class="b" d="M2762.309,2247.864l16.132,59.694c.92,3.4-.276,7.3-3.288,10.7a14.858,14.858,0,0,1-10.92,5.355h-68.925c-3.931,0-6.709-1.948-7.626-5.355s.276-7.3,3.288-10.7l52.793-59.694a14.865,14.865,0,0,1,10.919-5.354C2758.615,2242.51,2761.388,2244.459,2762.309,2247.864Z" transform="translate(-878.462 -1336.284)"/><rect class="aj" x="1622.723" y="823.683" width="61.203" height="50.295" rx="25.146"/><rect class="aj" x="1691.667" y="808.571" width="30.604" height="25.15" rx="12.571"/><path class="q" d="M2750.77,2268.66l9.476,35.069c.542,2-.162,4.291-1.928,6.29a8.737,8.737,0,0,1-6.415,3.147h-40.494a4.263,4.263,0,0,1-4.486-3.147c-.537-2,.166-4.291,1.934-6.29l31.018-35.069a8.743,8.743,0,0,1,6.413-3.146A4.259,4.259,0,0,1,2750.77,2268.66Z" transform="translate(-878.462 -1336.284)"/></svg>