<svg xmlns="http://www.w3.org/2000/svg" viewBox="0 0 854.014 109.858"><defs><style>.a{fill:#607d8b;}.b{fill:#1c80ea;}.b,.c{fill-rule:evenodd;}.c{fill:#e33f84;}</style></defs><title>codebaseshow-logo-with-icon</title><path class="a" d="M293.506,486.737c0,4.382-2.841,7.451-6.784,7.453-1.643,0-2.739-.326-6.136-1.747a20.063,20.063,0,0,0-8.763-1.855c-11.5.01-18.394,8.558-18.383,22.906.012,14.13,6.918,22.558,18.528,22.548,4.162,0,4.162,0,11.608-3.405a10.145,10.145,0,0,1,3.723-.879c3.724,0,6.793,3.5,6.8,7.661.006,7.12-9.3,12.275-22.115,12.286-22.015.017-36.485-15.305-36.5-38.635-.019-22.453,14.865-38.127,36.223-38.144C284.734,474.916,293.5,479.728,293.506,486.737Z" transform="translate(-83 -456.996)"/><path class="a" d="M341.522,501.923c4.714,5.144,7.239,12.262,7.245,20.148.013,16.429-11.477,28.815-26.811,28.827a26.872,26.872,0,0,1-19.723-8.747C297.41,536.9,295,530,294.988,521.676c-.012-15.991,11.7-28.487,26.921-28.5A26.815,26.815,0,0,1,341.522,501.923ZM310.87,521.882c.007,8.105,4.611,14.015,10.745,14.011,6.352,0,11.276-6.143,11.27-13.919-.006-7.667-4.94-13.8-11.292-13.792C315.569,508.187,310.864,514.215,310.87,521.882Z" transform="translate(-83 -456.996)"/><path class="a" d="M389.223,480.089c0-3.834.106-4.819,1.09-6.682a7.994,7.994,0,0,1,13.91-.011c.987,1.861,1.1,2.737,1.1,6.68l.049,61.226c0,5.8-2.951,9.2-8.1,9.207-3.943,0-6.135-1.748-7.782-6.346-3.391,4.712-7.661,6.687-13.9,6.692-7.339.006-13.8-3.6-18.409-10.062a34.5,34.5,0,0,1-6.039-19.162c-.007-8.544,3.928-17.419,9.839-22.571a24.8,24.8,0,0,1,15.22-5.927c4.819,0,8.654,1.418,13.037,5.028ZM367.241,521.07c.006,8.1,4.72,14.016,11.183,14.011,6.243,0,10.948-6.033,10.941-13.919-.006-7.777-4.72-13.8-10.963-13.792C372.049,507.375,367.234,513.293,367.241,521.07Z" transform="translate(-83 -456.996)"/><path class="a" d="M428.053,527.265c2.415,6.46,6.469,9.523,12.822,9.518,3.833,0,4.819-.332,13.249-4.5a9.124,9.124,0,0,1,3.5-.77,6.882,6.882,0,0,1,6.468,6.567c0,6.572-11.709,12.714-24.086,12.724-17.2.014-29.253-11.586-29.266-28.015-.014-17.087,11.695-29.692,27.577-29.7,15-.012,26.734,12.137,26.747,27.8,0,4.491-2.076,6.355-7,6.359Zm21.13-10.97a17.368,17.368,0,0,0-2.305-5.913,10.018,10.018,0,0,0-8.218-4.155c-5.367,0-8.869,3.074-11.164,10.085Z" transform="translate(-83 -456.996)"/><path class="a" d="M486.69,497.755c4.816-3.509,8.211-4.717,13.03-4.721,13.8-.011,24.983,12.686,25,28.676.014,16.43-10.71,29.034-24.839,29.045-6.024,0-9.969-1.854-13.368-6.341-1.749,4.163-4.048,6.027-7.552,6.029-4.929,0-8.327-3.5-8.331-8.536l-.05-61.883c0-3.834.106-4.819,1.091-6.682a7.993,7.993,0,0,1,13.909-.011c.987,1.861,1.1,2.737,1.1,6.68Zm-.09,23.986c.006,8.105,4.72,14.016,11.183,14.011,6.243,0,10.947-6.033,10.941-13.919-.006-7.776-4.72-13.8-10.963-13.791C491.408,508.046,486.594,513.965,486.6,521.741Z" transform="translate(-83 -456.996)"/><path class="a" d="M582.22,540.832c0,5.7-3.279,9.532-8.1,9.535-3.833,0-6.464-2.075-8.11-6.346-4.049,5.041-7.333,6.687-13.247,6.692a23.509,23.509,0,0,1-15.887-6.12q-9.536-8.372-9.547-22.994c-.007-8.871,2.616-15.555,8.416-21.255,4.815-4.823,10.509-7.347,16.752-7.352,5.695,0,9.092,1.636,13.7,6.342,1.749-4.273,4.158-6.027,7.991-6.031a8.021,8.021,0,0,1,8,8.209ZM543.431,521.7c.007,8.433,4.393,14.016,11.183,14.01,6.572,0,11.058-5.7,11.052-13.918s-4.5-13.8-11.183-13.792C547.911,508,543.425,513.591,543.431,521.7Z" transform="translate(-83 -456.996)"/><path class="a" d="M628.661,503.994c0,3.614-2.952,7.012-6.237,7.014-1.753,0-1.862,0-6.793-2.185a15.586,15.586,0,0,0-6.134-1.638c-2.629,0-4.272,1.1-4.27,2.851,0,2.081.878,2.629,8.438,5.58,7.122,2.842,9.422,4.154,12.273,7a14.533,14.533,0,0,1,3.951,10.073c.008,10.624-8.639,17.969-21.234,17.979-10.953.009-20.6-5.46-20.6-11.593,0-3.724,3.28-7.232,6.675-7.234,1.863,0,1.863,0,8.327,2.841a15.9,15.9,0,0,0,6.464,1.747c2.628,0,4.708-1.646,4.706-3.727,0-1.862-1.206-2.847-6.137-4.705-8-2.951-10.189-4.045-12.929-6.014-3.836-2.735-5.482-6.348-5.486-11.606-.008-9.966,8.858-17.422,20.687-17.431C620.109,492.938,628.656,498.079,628.661,503.994Z" transform="translate(-83 -456.996)"/><path class="a" d="M649.653,527.087c2.415,6.46,6.47,9.524,12.822,9.519,3.834,0,4.819-.333,13.249-4.5a9.143,9.143,0,0,1,3.5-.769A6.881,6.881,0,0,1,685.7,537.9c.006,6.572-11.709,12.714-24.086,12.724-17.2.014-29.253-11.586-29.266-28.016-.014-17.086,11.7-29.691,27.577-29.7,15-.012,26.734,12.136,26.747,27.8,0,4.491-2.076,6.354-7,6.358Zm21.13-10.969a17.351,17.351,0,0,0-2.305-5.913,10.021,10.021,0,0,0-8.218-4.156c-5.366,0-8.869,3.075-11.164,10.086Z" transform="translate(-83 -456.996)"/><path class="a" d="M737.108,485.4a7.532,7.532,0,0,1-7.441,7.783c-1.643,0-1.643,0-5.807-1.529a22.979,22.979,0,0,0-7.448-1.418c-4.929,0-8.432,2.526-8.429,6.031a4.96,4.96,0,0,0,2.3,4.16c1.972,1.423,1.972,1.423,8.983,3.279,16.1,4.368,23.01,11.263,23.02,23.092a24.937,24.937,0,0,1-6.23,16.763c-4.6,5.042-12.261,7.786-21.571,7.794-14.567.011-24.867-5.128-24.873-12.357,0-4.382,3.28-8,7.223-8,2.081,0,2.081,0,10.079,3.059a24.366,24.366,0,0,0,8.215,1.637c5.586,0,9.2-3.075,9.195-7.675a5.8,5.8,0,0,0-2.852-5.255c-2.082-1.422-3.616-1.968-11.614-4.372-8.545-2.512-11.942-4.152-15.011-7.216-3.069-2.955-4.715-7.664-4.72-13.25-.011-13.581,11.263-23.338,26.925-23.351C728.775,474.56,737.1,479.044,737.108,485.4Z" transform="translate(-83 -456.996)"/><path class="a" d="M764.169,497.423c5.474-3.29,9.635-4.608,14.783-4.612a20.758,20.758,0,0,1,14.133,5.356c3.946,3.611,5.483,7.991,5.489,15l.021,26.287c0,3.833-.106,4.818-1.09,6.681a7.994,7.994,0,0,1-13.91.011c-.987-1.861-1.1-2.737-1.1-6.68l-.018-21.686c0-6.9-3.4-11.06-8.99-11.055-5.367,0-9.307,4.278-9.3,9.974l.018,22.782c0,3.833-.105,4.819-1.09,6.682a7.993,7.993,0,0,1-13.909.011c-.988-1.862-1.1-2.737-1.1-6.68l-.048-59.693c0-3.834.106-4.82,1.09-6.682a7.994,7.994,0,0,1,13.91-.011c.987,1.861,1.1,2.737,1.1,6.68Z" transform="translate(-83 -456.996)"/><path class="a" d="M850.293,501.516c4.714,5.144,7.238,12.261,7.245,20.148.013,16.429-11.478,28.815-26.811,28.827A26.871,26.871,0,0,1,811,541.744c-4.823-5.253-7.238-12.152-7.245-20.475-.012-15.992,11.7-28.487,26.922-28.5A26.814,26.814,0,0,1,850.293,501.516Zm-30.652,19.959c.007,8.105,4.612,14.016,10.745,14.011,6.352-.006,11.276-6.143,11.27-13.919-.007-7.667-4.94-13.8-11.293-13.792C824.34,507.78,819.635,513.808,819.641,521.475Z" transform="translate(-83 -456.996)"/><path class="a" d="M920.365,501.351c1.858-6.245,4.046-8.437,8.536-8.441a8.117,8.117,0,0,1,8.113,7.88c0,1.533-.217,2.519-1.2,5.477L924.448,538.7c-2.95,8.436-5.8,11.4-11.053,11.4-4.491,0-7.231-2.4-9.317-8.535l-6.916-20.148-5.572,17.31c-2.732,8.545-5.468,11.4-10.615,11.4-4.491,0-7.888-2.951-9.865-8.535l-12.4-35.368c-1.207-3.285-1.317-3.832-1.318-5.585a7.9,7.9,0,0,1,7.989-7.673c4.49,0,6.683,2.185,8.55,8.317l7.138,23.981,7.866-24.869c1.639-5.259,4.047-7.342,8.427-7.345,3.944,0,6.356,2.185,8,7.332l7.907,24.747Z" transform="translate(-83 -456.996)"/><polygon class="b" points="50.351 109.858 59.506 109.858 59.506 96.126 50.351 96.126 50.351 109.858"/><path class="b" d="M145.777,505.7l1.854,10.8-9.7-5.1-9.7,5.1,1.854-10.8-7.85-7.648,10.848-1.58,4.848-9.827,4.852,9.827,10.848,1.58ZM172.7,516.123a27.768,27.768,0,0,1-3.795-3.369c-14.936-16.012-12.757-50.058-12.661-51.5V457H119.617v4.577c.092,1.122,2.27,35.168-12.666,51.18a27.7,27.7,0,0,1-3.794,3.369,27.351,27.351,0,0,1,5.749,4.765c13.05,14.3,10.8,40.693,10.7,41.806v4.161h4.591v-18.31a4.579,4.579,0,0,1,4.578-4.577h18.309a4.576,4.576,0,0,1,4.578,4.577v18.31h4.577v-4.578c-.082-.7-2.334-27.084,10.716-41.389a27.326,27.326,0,0,1,5.749-4.765Z" transform="translate(-83 -456.996)"/><path class="c" d="M165.393,461.574c-.032.627-2.009,31.849,10.213,44.941a16.49,16.49,0,0,0,12.674,5.41h4.578V461.574A4.577,4.577,0,0,0,188.28,457H165.393Z" transform="translate(-83 -456.996)"/><path class="c" d="M87.577,511.925a16.472,16.472,0,0,0,12.68-5.419c10.166-10.895,10.825-35.9,10.217-44.616V457h-22.9A4.576,4.576,0,0,0,83,461.574v50.351Z" transform="translate(-83 -456.996)"/><path class="c" d="M188.28,521.08c-6.12,0-10.88,1.95-14.551,5.964-10.336,11.3-8.377,34.583-8.354,34.821l0,4.989h22.9a4.576,4.576,0,0,0,4.578-4.577v-41.2Z" transform="translate(-83 -456.996)"/><path class="c" d="M110.464,562.277c.042-.65,2-23.931-8.335-35.233-3.671-4.014-8.432-5.964-14.552-5.964H83v41.2a4.576,4.576,0,0,0,4.577,4.577h22.887Z" transform="translate(-83 -456.996)"/></svg>