<svg xmlns="http://www.w3.org/2000/svg" viewBox="0 0 854.014 109.858"><defs><style>.a{fill:#607d8b;}.b{fill:#03a9f4;}.b,.c{fill-rule:evenodd;}.c{fill:#ff4081;}</style></defs><title>codebaseshow-logo-with-icon</title><path class="a" d="M210.506,29.741c0,4.381-2.841,7.45-6.784,7.453-1.643,0-2.739-.326-6.136-1.748a20.076,20.076,0,0,0-8.763-1.854c-11.5.009-18.394,8.558-18.383,22.906.012,14.129,6.918,22.557,18.528,22.548,4.162,0,4.162,0,11.608-3.405a10.148,10.148,0,0,1,3.723-.88c3.724,0,6.793,3.5,6.8,7.662.006,7.12-9.3,12.275-22.115,12.285-22.015.018-36.485-15.3-36.5-38.634-.019-22.453,14.865-38.128,36.223-38.145C201.734,17.919,210.5,22.731,210.506,29.741Z"/><path class="a" d="M258.522,44.927c4.714,5.144,7.239,12.261,7.245,20.147C265.78,81.5,254.29,93.889,238.956,93.9a26.876,26.876,0,0,1-19.723-8.747C214.41,79.9,212,73,211.988,64.679c-.012-15.991,11.7-28.486,26.921-28.5A26.816,26.816,0,0,1,258.522,44.927ZM227.87,64.885c.007,8.1,4.611,14.016,10.745,14.011,6.352,0,11.276-6.142,11.27-13.918-.006-7.667-4.94-13.8-11.292-13.792C232.569,51.191,227.864,57.218,227.87,64.885Z"/><path class="a" d="M306.223,23.092c0-3.833.106-4.819,1.09-6.681a7.994,7.994,0,0,1,13.91-.011c.987,1.86,1.1,2.737,1.1,6.68l.049,61.226c0,5.805-2.951,9.2-8.1,9.206-3.943,0-6.135-1.747-7.782-6.346-3.391,4.713-7.661,6.688-13.9,6.693-7.339.005-13.8-3.6-18.409-10.062a34.505,34.505,0,0,1-6.039-19.163c-.007-8.543,3.928-17.418,9.839-22.57a24.8,24.8,0,0,1,15.22-5.927c4.819,0,8.654,1.417,13.037,5.028ZM284.241,64.073c.006,8.105,4.72,14.017,11.183,14.011,6.243-.005,10.948-6.033,10.941-13.919-.006-7.776-4.72-13.8-10.963-13.791C289.049,50.379,284.234,56.3,284.241,64.073Z"/><path class="a" d="M345.053,70.268c2.415,6.46,6.469,9.524,12.822,9.519,3.833,0,4.819-.333,13.249-4.5a9.123,9.123,0,0,1,3.5-.769,6.88,6.88,0,0,1,6.468,6.567c0,6.571-11.709,12.714-24.086,12.724-17.2.013-29.253-11.587-29.266-28.016-.014-17.086,11.695-29.691,27.577-29.7,15-.012,26.734,12.136,26.747,27.8,0,4.491-2.076,6.354-7,6.358ZM366.183,59.3a17.351,17.351,0,0,0-2.305-5.913,10.019,10.019,0,0,0-8.218-4.156c-5.367.005-8.869,3.074-11.164,10.086Z"/><path class="a" d="M403.69,40.758c4.816-3.508,8.211-4.716,13.03-4.72,13.8-.011,24.983,12.685,24.995,28.676.014,16.429-10.71,29.034-24.839,29.045-6.024,0-9.969-1.854-13.368-6.342-1.749,4.164-4.048,6.028-7.552,6.03-4.929,0-8.327-3.5-8.331-8.536l-.05-61.883c0-3.834.106-4.82,1.091-6.683a7.994,7.994,0,0,1,13.909-.011c.987,1.861,1.1,2.738,1.1,6.681Zm-.09,23.987c.006,8.1,4.72,14.015,11.183,14.011,6.243-.006,10.947-6.033,10.941-13.919-.006-7.777-4.72-13.8-10.963-13.792C408.408,51.05,403.594,56.968,403.6,64.745Z"/><path class="a" d="M499.22,83.836c0,5.7-3.279,9.531-8.1,9.535-3.833,0-6.464-2.076-8.11-6.346-4.049,5.041-7.333,6.687-13.247,6.691a23.5,23.5,0,0,1-15.887-6.12q-9.535-8.371-9.547-22.993c-.007-8.872,2.616-15.555,8.416-21.256C457.562,38.525,463.256,36,469.5,36c5.695-.005,9.092,1.636,13.7,6.342,1.749-4.273,4.158-6.028,7.991-6.031a8.019,8.019,0,0,1,8,8.208ZM460.431,64.7c.007,8.434,4.393,14.017,11.183,14.011,6.572,0,11.058-5.7,11.052-13.919s-4.5-13.8-11.183-13.791C464.911,51.005,460.425,56.594,460.431,64.7Z"/><path class="a" d="M545.661,47c0,3.615-2.951,7.012-6.237,7.015-1.752,0-1.862,0-6.793-2.185a15.578,15.578,0,0,0-6.134-1.638c-2.629,0-4.271,1.1-4.269,2.851,0,2.081.878,2.628,8.438,5.579,7.121,2.842,9.422,4.155,12.272,7a14.535,14.535,0,0,1,3.951,10.074c.009,10.624-8.638,17.969-21.234,17.979-10.952.009-20.595-5.46-20.6-11.593,0-3.724,3.28-7.232,6.675-7.235,1.862,0,1.862,0,8.327,2.841a15.924,15.924,0,0,0,6.463,1.748c2.628,0,4.709-1.647,4.707-3.728,0-1.862-1.207-2.846-6.137-4.7-8-2.951-10.19-4.044-12.929-6.013-3.836-2.736-5.482-6.349-5.486-11.606-.008-9.967,8.857-17.422,20.686-17.432C537.109,35.942,545.657,41.083,545.661,47Z"/><path class="a" d="M566.653,70.091c2.415,6.46,6.47,9.523,12.823,9.519,3.833,0,4.818-.333,13.249-4.5a9.115,9.115,0,0,1,3.5-.769,6.879,6.879,0,0,1,6.467,6.566c.006,6.572-11.709,12.715-24.085,12.725-17.2.013-29.254-11.587-29.267-28.016-.013-17.086,11.7-29.691,27.577-29.7,15.006-.012,26.735,12.136,26.747,27.8,0,4.49-2.076,6.354-7,6.358Zm21.13-10.97a17.376,17.376,0,0,0-2.3-5.912,10.019,10.019,0,0,0-8.218-4.156c-5.367,0-8.869,3.074-11.164,10.086Z"/><path class="a" d="M654.108,28.4a7.533,7.533,0,0,1-7.441,7.783c-1.643,0-1.643,0-5.807-1.529a22.979,22.979,0,0,0-7.448-1.418c-4.929,0-8.432,2.526-8.429,6.031a4.96,4.96,0,0,0,2.3,4.16c1.972,1.422,1.972,1.422,8.983,3.279,16.1,4.368,23.01,11.263,23.02,23.092a24.932,24.932,0,0,1-6.23,16.762c-4.6,5.042-12.261,7.786-21.571,7.794-14.567.011-24.867-5.128-24.873-12.357,0-4.381,3.28-8,7.223-8,2.081,0,2.081,0,10.079,3.059a24.34,24.34,0,0,0,8.215,1.636c5.586,0,9.2-3.074,9.195-7.674a5.8,5.8,0,0,0-2.852-5.255c-2.082-1.422-3.616-1.969-11.614-4.372-8.545-2.512-11.942-4.153-15.011-7.216-3.069-2.956-4.715-7.664-4.72-13.25-.011-13.582,11.263-23.338,26.925-23.351C645.775,17.564,654.1,22.048,654.108,28.4Z"/><path class="a" d="M681.17,40.427c5.474-3.291,9.635-4.608,14.783-4.612a20.755,20.755,0,0,1,14.133,5.356c3.946,3.61,5.482,7.991,5.488,15l.021,26.286c0,3.834-.105,4.819-1.09,6.682a7.993,7.993,0,0,1-13.909.011c-.988-1.861-1.1-2.737-1.1-6.68l-.017-21.687c-.006-6.9-3.4-11.059-8.991-11.055-5.366.005-9.306,4.279-9.3,9.975l.019,22.782c0,3.833-.106,4.818-1.09,6.682a8,8,0,0,1-13.91.011c-.987-1.862-1.1-2.738-1.1-6.681l-.048-59.693c0-3.833.106-4.819,1.091-6.681a7.994,7.994,0,0,1,13.909-.012c.987,1.861,1.1,2.738,1.1,6.681Z"/><path class="a" d="M767.293,44.52c4.715,5.144,7.238,12.261,7.245,20.147.013,16.429-11.477,28.815-26.811,28.827a26.871,26.871,0,0,1-19.722-8.746c-4.823-5.254-7.238-12.152-7.245-20.476-.013-15.991,11.7-28.487,26.921-28.5A26.814,26.814,0,0,1,767.293,44.52ZM736.642,64.478c.006,8.105,4.611,14.016,10.745,14.011,6.352-.005,11.276-6.142,11.27-13.919-.007-7.667-4.94-13.8-11.293-13.791C741.34,50.783,736.636,56.811,736.642,64.478Z"/><path class="a" d="M837.365,44.354c1.858-6.244,4.046-8.436,8.536-8.44a8.116,8.116,0,0,1,8.113,7.88c0,1.533-.217,2.519-1.2,5.477L841.448,81.7c-2.95,8.436-5.8,11.395-11.053,11.4-4.491,0-7.231-2.405-9.317-8.536l-6.916-20.148-5.572,17.31c-2.732,8.546-5.468,11.395-10.615,11.4-4.491,0-7.888-2.951-9.865-8.535l-12.4-35.368c-1.207-3.285-1.317-3.833-1.318-5.585a7.9,7.9,0,0,1,7.989-7.673c4.49,0,6.683,2.185,8.55,8.317l7.138,23.981,7.866-24.869c1.639-5.259,4.047-7.342,8.427-7.345,3.944,0,6.356,2.185,8,7.332l7.907,24.747Z"/><polygon class="b" points="50.351 109.858 59.506 109.858 59.506 96.126 50.351 96.126 50.351 109.858"/><path class="b" d="M62.777,48.7l1.854,10.8-9.7-5.1-9.7,5.1,1.854-10.8-7.85-7.649,10.848-1.579,4.848-9.828,4.852,9.828,10.848,1.579ZM89.7,59.127a27.835,27.835,0,0,1-3.795-3.369C70.97,39.746,73.149,5.7,73.245,4.262V0H36.617V4.578c.092,1.121,2.27,35.168-12.666,51.18a27.769,27.769,0,0,1-3.794,3.369,27.321,27.321,0,0,1,5.749,4.765c13.05,14.3,10.8,40.693,10.7,41.805v4.161h4.591V91.549a4.58,4.58,0,0,1,4.578-4.578H64.081a4.577,4.577,0,0,1,4.578,4.578v18.309h4.577v-4.577c-.082-.7-2.334-27.085,10.716-41.389A27.3,27.3,0,0,1,89.7,59.127Z"/><path class="c" d="M82.393,4.577c-.032.628-2.009,31.85,10.213,44.941a16.49,16.49,0,0,0,12.674,5.411h4.578V4.577A4.576,4.576,0,0,0,105.28,0H82.393Z"/><path class="c" d="M4.577,54.929a16.473,16.473,0,0,0,12.68-5.42c10.166-10.894,10.825-35.9,10.217-44.616V0H4.577A4.576,4.576,0,0,0,0,4.577V54.929Z"/><path class="c" d="M105.28,64.084c-6.12,0-10.88,1.95-14.551,5.964-10.336,11.3-8.377,34.582-8.354,34.82l0,4.99h22.9a4.577,4.577,0,0,0,4.578-4.578v-41.2Z"/><path class="c" d="M27.464,105.28c.042-.65,2-23.93-8.335-35.232-3.671-4.014-8.432-5.964-14.552-5.964H0v41.2a4.576,4.576,0,0,0,4.577,4.578H27.464Z"/></svg>